<?xml version="1.0" encoding="UTF-8" standalone="no"?>
<svg
   xmlns:dc="http://purl.org/dc/elements/1.1/"
   xmlns:cc="http://creativecommons.org/ns#"
   xmlns:rdf="http://www.w3.org/1999/02/22-rdf-syntax-ns#"
   xmlns:svg="http://www.w3.org/2000/svg"
   xmlns="http://www.w3.org/2000/svg"
   version="1.1"
   id="svg2"
   viewBox="0 0 1052.3622 526.1811"
   height="148.5mm"
   width="297mm">
  <defs
     id="defs4" />
  <metadata
     id="metadata7">
    <rdf:RDF>
      <cc:Work
         rdf:about="">
        <dc:format>image/svg+xml</dc:format>
        <dc:type
           rdf:resource="http://purl.org/dc/dcmitype/StillImage" />
        <dc:title></dc:title>
      </cc:Work>
    </rdf:RDF>
  </metadata>
  <g
     transform="translate(0,-526.18111)"
     id="layer1">
    <g
       transform="matrix(2.0222366,0,0,2.2640677,-800.03164,-988.14736)"
       id="g4377">
      <g
         id="g10200"
         transform="translate(-233.83483,436.03882)"
         style="fill:#00afa1;fill-opacity:1">
        <path
           d="m 750.15123,259.34995 c -0.5,0.375 -0.875,4.375 -0.875,8.75 0,4.25 -0.5,7.875 -1.125,7.875 -0.5,0 -3.625,-2.375 -6.875,-5.125 -8.75,-7.75 -9.5,-4.875 -1,4.375 2.125,2.375 4,4.625 4,5 0,0.25 -3.875,0.875 -8.75,1.375 -12.625,1.25 -10.75,4.375 2.875,4.375 3.25,0 5.875,0.375 5.875,0.75 0,0.375 -2.5,3.625 -5.625,7 -3.125,3.5 -5.25,6.75 -4.875,7.375 0.625,1.125 2.875,-0.25 11.5,-7.125 l 4,-3.375 0,5 c 0,6.375 1.25,12.875 2.5,12.875 0.5,0 1.375,-4 1.875,-8.75 l 0.875,-8.875 6.875,5.875 c 8.875,7.625 11.125,5.75 3.5,-2.875 -3.125,-3.5 -5.625,-6.75 -5.625,-7.125 0,-0.375 3.25,-0.75 7.25,-0.75 6.5,0 11.625,-1.5 10.25,-3 -0.375,-0.25 -4.5,-1 -9.25,-1.625 l -8.625,-1 6,-6.625 c 8,-8.875 6,-11.375 -2.75,-3.375 -3.5,3.125 -6.625,5.625 -7,5.625 -0.25,0 -1,-4 -1.375,-8.75 -0.875,-8.25 -1.625,-9.875 -3.625,-7.875 z m 4.5,23.375 c 0.375,1 -0.125,2.5 -1.125,3.375 -1.5,1.25 -2.25,1.125 -3.875,-0.375 -1,-1.125 -1.5,-2.625 -1.125,-3.375 1.25,-2 5.375,-1.75 6.125,0.375 z"
           id="path6"
           style="fill:#00afa1;fill-opacity:1;stroke:none" />
        <path
           d="m 742.65123,312.97495 c -2,2 1.125,3 9.25,3 6.875,0 8.625,-0.375 8.625,-1.875 0,-1.5 -1.75,-1.875 -8.5,-1.875 -4.75,0 -9,0.375 -9.375,0.75 z"
           id="path26"
           style="fill:#00afa1;fill-opacity:1;stroke:none" />
        <path
           d="m 742.40123,319.72495 c -1.625,2.75 1.5,3.875 9.5,3.5 6.125,-0.25 8,-0.875 8,-2.25 0,-1.5 -1.875,-2 -8.375,-2.25 -5.125,-0.25 -8.625,0.125 -9.125,1 z"
           id="path62"
           style="fill:#00afa1;fill-opacity:1;stroke:none" />
        <path
           d="m 747.40123,325.97495 c -0.5,0.75 1.25,1.25 4.375,1.25 3.125,0 4.875,-0.5 4.375,-1.25 -0.375,-0.75 -2.375,-1.25 -4.375,-1.25 -2,0 -4,0.5 -4.375,1.25 z"
           id="path64"
           style="fill:#00afa1;fill-opacity:1;stroke:none" />
      </g>
      <g
         id="g10105"
         transform="translate(408.62219,161.27733)"
         style="fill:#004ea1;fill-opacity:1">
        <path
           d="m 40.423906,592.36144 c -0.375,0.875 -0.5,19.75 -0.375,42.125 l 0.375,40.625 22.625,0.375 c 17.125,0.25 23,-0.125 23.875,-1.25 1,-1.375 5.375,-12.875 5.375,-14.375 0,-0.25 -7.875,-0.375 -17.5,-0.375 l -17.5,0 0,-10 0,-10 12.5,0 12.5,0 0,-8.125 0,-8.125 -12.5,0 -12.5,0 0,-8.125 0,-8.125 15.625,0 15.625,0 -0.75,-5.375 c -1.875,-11.625 -0.125,-10.875 -24.875,-10.875 -16.5,0 -22.125,0.375 -22.5,1.625 z"
           id="path60"
           style="fill:#004ea1;fill-opacity:1;stroke:none" />
        <path
           d="m 318.54891,609.73644 c -1.75,0.625 -11,1.375 -20.625,1.5 -19.25,0.25 -23.75,1.5 -30.875,9.125 -9.375,9.875 -7.75,25.75 3.375,32.75 4.25,2.75 5,3.75 4.25,5.75 -1.875,5 -1.375,5.625 3.25,3.625 5.875,-2.375 16.25,-2.25 20.625,0.375 6,3.5 8,11 4.25,16.375 -5.875,8.5 -21.125,8.5 -30.25,0 l -2.75,-2.75 -5,4.875 -5,4.875 2.75,2.875 c 1.5,1.625 5.75,4.375 9.5,6.25 5.75,2.75 8.375,3.25 17.5,3.25 11.875,0 17,-1.5 23.875,-7.375 10.875,-9.125 10.125,-26.5 -1.5,-34.125 l -4.625,-3 3.75,-2.375 c 8.375,-5 11.375,-17.25 6.25,-25.75 -1.375,-2.25 -2.5,-4.375 -2.5,-4.625 0,-0.375 1.875,-0.625 4.25,-0.625 2.375,0 4.5,-0.75 4.875,-1.625 0.25,-0.75 0.75,-1.25 1.125,-0.875 0.375,0.375 6.125,11.5 12.75,24.875 l 12.25,24.125 -6.25,13.375 c -3.5,7.25 -6.125,13.375 -6,13.5 0.125,0.125 3.375,0.75 7.375,1.375 8.25,1.25 7.75,1.75 12.99997,-10.375 2.125,-4.875 10.125,-22.5 17.75,-39.375 7.625,-16.75 13.375,-30.875 12.875,-31.375 -1.375,-1.375 -13.25,-3.5 -14.125,-2.625 -0.375,0.5 -3.5,7.375 -6.75,15.25 -3.25,7.875 -6.75,16.375 -7.875,18.75 l -1.75,4.375 -9.99997,-19.75 c -7.875,-15.75 -10.25,-19.625 -12,-19.125 -1.125,0.375 -4.25,1 -6.75,1.375 -4.25,0.75 -4.5,0.625 -3.875,-1.75 0.75,-3 -1.75,-3.375 -7.125,-1.125 z m -20.125,15.5 c 1.625,1.125 3.625,4 4.625,6.25 1.5,3.625 1.5,4.875 0,8.5 -2,4.875 -7.5,8.25 -13.125,8.25 -5.75,0 -12.625,-6.625 -12.625,-12.125 0,-2.375 0.625,-5.375 1.25,-6.625 3.125,-5.75 14.25,-8.125 19.875,-4.25 z"
           id="path66"
           style="fill:#004ea1;fill-opacity:1;stroke:none" />
        <path
           d="m 120.42391,611.61144 c -1.375,0.375 -4.625,2.25 -7.125,4.25 l -4.75,3.75 0.75,-3.875 c 0.75,-3.75 0.75,-3.75 -4.625,-3.75 -3,0 -6.750004,0.375 -8.375004,0.75 l -2.75,0.75 0,31.125 0.125,31.125 8.000004,0 7.875,0 0.5,-21 c 0.375,-23 1,-25 8,-28.375 5.625,-2.625 8.875,-2.375 12.375,1.25 3.125,3 3.125,3.25 3.125,25.625 l 0,22.5 8.25,0 8.125,0 -0.375,-26.125 c -0.375,-24.125 -0.625,-26.5 -3,-29.75 -5,-7 -16.375,-10.5 -26.125,-8.25 z"
           id="path68"
           style="fill:#004ea1;fill-opacity:1;stroke:none" />
        <path
           d="m 174.42391,612.86144 c -7.375,2.5 -16.375,10.125 -19.875,17.125 -3.875,7.25 -3.875,20.625 -0.125,27.75 3.5,6.625 9.25,12.375 15.875,15.875 4.25,2.25 7.125,2.75 16.375,2.75 9.875,0 12.125,-0.5 18.5,-3.5 4,-2 7,-4 6.875,-4.375 -0.25,-0.5 -1.75,-3.5 -3.25,-6.875 -1.5,-3.25 -2.875,-5.875 -3.25,-5.875 -0.25,0 -3.375,1.5 -6.875,3.25 -7.625,3.75 -17.375,4.25 -22,1.25 -1.75,-1.125 -3.125,-2.5 -3.125,-3 0,-0.5 9.5,-6.75 21.25,-13.875 l 21.125,-13 -2.125,-3.75 c -5.25,-9 -18,-16 -28.875,-15.75 -2.5,0 -7.25,0.875 -10.5,2 z m 18.625,13.375 c 1.25,1 2.125,2 1.75,2.375 -2,1.625 -26.5,15.875 -27.375,15.875 -1.75,0 1,-10.375 3.375,-13 5.875,-6.5 16.875,-9.125 22.25,-5.25 z"
           id="path70"
           style="fill:#004ea1;fill-opacity:1;stroke:none" />
        <path
           d="m 249.17391,612.61144 c -2.75,1 -6.5,3.5 -8.375,5.625 l -3.5,3.75 0,-5 0,-5 -5.5,0 c -10.125,0 -9.5,-2.25 -9.5,32.75 l 0,31.125 7.875,-0.375 7.75,-0.375 0.625,-19 c 0.75,-22.125 1.875,-25 11.25,-27.375 5.125,-1.25 5.5,-1.625 8.25,-9.375 1.625,-4.375 3,-8.125 3,-8.375 0,-0.875 -7.625,0.125 -11.875,1.625 z"
           id="path72"
           style="fill:#004ea1;fill-opacity:1;stroke:none" />
      </g>
      <g
         transform="scale(1.1599349,0.86211735)"
         style="font-style:normal;font-variant:normal;font-weight:normal;font-stretch:condensed;font-size:34.97516251px;line-height:125%;font-family:Arial;-inkscape-font-specification:'Arial, Condensed';text-align:start;letter-spacing:0px;word-spacing:0px;writing-mode:lr-tb;text-anchor:start;fill:#004ea1;fill-opacity:1;stroke:none;stroke-width:1px;stroke-linecap:butt;stroke-linejoin:miter;stroke-opacity:1"
         id="text10112">
        <path
           d="m 387.81669,1003.6291 0,-25.03594 7.73621,0 q 2.73243,0 4.03034,0.47817 1.77608,0.64896 2.8349,2.40796 1.05882,1.75901 1.05882,4.32066 0,3.38139 -1.72485,5.51611 -1.72485,2.13471 -5.96013,2.13471 l -5.25993,0 0,10.17833 -2.71536,0 z m 2.71536,-13.13277 5.31117,0 q 2.51042,0 3.67171,-1.12713 1.16128,-1.14421 1.16128,-3.43262 0,-1.48577 -0.58064,-2.54458 -0.56357,-1.05882 -1.3833,-1.45161 -0.80265,-0.39279 -2.92029,-0.39279 l -5.25993,0 0,8.94873 z"
           id="path4256" />
        <path
           d="m 406.56802,1003.6291 0,-18.13655 2.27134,0 0,2.74952 q 0.87096,-1.91271 1.58823,-2.5275 0.73434,-0.63188 1.63946,-0.63188 1.26375,0 2.57873,0.99051 l -0.85388,2.85198 q -0.93928,-0.66604 -1.82732,-0.66604 -0.80265,0 -1.46868,0.56357 -0.66603,0.56356 -0.93928,1.57115 -0.47817,1.759 -0.47817,3.74002 l 0,9.49522 -2.51043,0 z"
           id="path4258" />
        <path
           d="m 416.13154,982.12824 0,-3.53508 2.51043,0 0,3.53508 -2.51043,0 z m 0,21.50086 0,-18.13655 2.51043,0 0,18.13655 -2.51043,0 z"
           id="path4260" />
        <path
           d="m 432.23583,996.98586 2.47627,0.39279 q -0.42694,3.24475 -2.15179,4.95255 -1.70777,1.7078 -4.11573,1.7078 -2.92029,0 -4.81592,-2.3909 -1.87854,-2.40798 -1.87854,-7.10436 0,-4.73052 1.89562,-7.08725 1.91271,-2.3738 4.90131,-2.3738 2.30549,0 3.87664,1.43453 1.58823,1.43453 2.03225,4.30358 l -2.44212,0.4611 q -0.35863,-1.84439 -1.24667,-2.74951 -0.88804,-0.9222 -2.13471,-0.9222 -1.86148,0 -3.09107,1.65654 -1.21252,1.63946 -1.21252,5.22578 0,3.70587 1.16129,5.3624 1.17836,1.65659 3.00567,1.65659 1.43453,0 2.44212,-1.093 1.02466,-1.11007 1.2979,-3.43264 z"
           id="path4262" />
        <path
           d="m 447.00806,997.78851 2.59581,0.39279 q -0.64895,2.9032 -2.35673,4.389 -1.69069,1.4687 -4.20111,1.4687 -3.15938,0 -5.12332,-2.3909 -1.94686,-2.40798 -1.94686,-6.93358 0,-4.69637 1.96394,-7.15556 1.98101,-2.47627 5.00377,-2.47627 2.88613,0 4.81592,2.42504 1.92978,2.42503 1.92978,7.01894 l -0.0171,0.81973 -11.10052,0 q 0.1537,3.05691 1.41745,4.61098 1.26376,1.55412 3.07399,1.55412 2.8349,0 3.94496,-3.72299 z m -8.2827,-4.96961 8.29977,0 q -0.17077,-2.35673 -1.00758,-3.51801 -1.21252,-1.6907 -3.09107,-1.6907 -1.69069,0 -2.88613,1.41745 -1.19544,1.40037 -1.31499,3.79126 z"
           id="path4264" />
        <path
           d="m 460.26036,995.58549 2.56166,-0.27325 q 0.20493,2.06641 0.9222,3.22769 0.73434,1.14421 2.08348,1.84437 1.34914,0.7002 3.03983,0.7002 2.42504,0 3.7571,-1.17835 1.34914,-1.19544 1.34914,-3.09107 0,-1.11005 -0.49526,-1.92978 -0.47817,-0.83681 -1.46868,-1.36622 -0.97343,-0.52941 -4.23527,-1.48576 -2.90321,-0.85389 -4.13281,-1.72485 -1.2296,-0.87096 -1.9127,-2.20302 -0.68311,-1.34914 -0.68311,-3.03984 0,-3.03983 1.96393,-4.96961 1.96394,-1.92979 5.2941,-1.92979 2.28841,0 3.99618,0.90512 1.72485,0.90512 2.66413,2.59582 0.95635,1.69069 1.02466,3.9791 l -2.61289,0.23909 q -0.20493,-2.44211 -1.46869,-3.62047 -1.24667,-1.17837 -3.518,-1.17837 -2.3055,0 -3.51801,1.04174 -1.21252,1.02467 -1.21252,2.66413 0,1.51992 0.88804,2.35672 0.88804,0.83681 3.99618,1.6907 3.03984,0.83681 4.26943,1.4516 1.87855,0.95636 2.8349,2.52751 0.95636,1.55407 0.95636,3.72294 0,2.15179 -1.00759,3.92786 -1.00758,1.759 -2.74951,2.6812 -1.72485,0.9222 -4.16696,0.9222 -3.80833,0 -6.07967,-2.2884 -2.25426,-2.28842 -2.33965,-6.19921 z"
           id="path4266" />
        <path
           d="m 478.99462,994.56082 q 0,-4.69637 1.96394,-7.08725 1.98101,-2.39088 5.00377,-2.39088 2.97152,0 4.96961,2.39088 1.9981,2.39088 1.9981,6.8994 0,4.88422 -1.96394,7.27513 -1.96394,2.3909 -5.00377,2.3909 -2.9886,0 -4.9867,-2.3909 -1.98101,-2.40798 -1.98101,-7.08728 z m 2.57873,0 q 0,3.51801 1.28083,5.24286 1.28083,1.70782 3.17646,1.70782 1.77608,0 3.03983,-1.7249 1.28083,-1.74192 1.28083,-5.22578 0,-3.50093 -1.28083,-5.2087 -1.28083,-1.72485 -3.17645,-1.72485 -1.79316,0 -3.05691,1.72485 -1.26376,1.72485 -1.26376,5.2087 z"
           id="path4268" />
        <path
           d="m 495.85032,1003.6291 0,-25.03594 2.51043,0 0,25.03594 -2.51043,0 z"
           id="path4270" />
        <path
           d="m 512.02292,1003.6291 0,-2.6641 q -0.87096,1.537 -2.04932,2.3055 -1.17836,0.7685 -2.66413,0.7685 -1.759,0 -3.00567,-0.9393 -1.24668,-0.9564 -1.67362,-2.408 -0.40987,-1.45158 -0.40987,-3.96201 l 0,-11.23714 2.51043,0 0,10.05878 q 0,2.80075 0.27324,3.7571 0.29032,0.93927 1.04174,1.51987 0.7685,0.5636 1.74193,0.5636 1.81024,0 2.97152,-1.48575 0.99051,-1.28083 0.99051,-4.69637 l 0,-9.71723 2.5275,0 0,18.13655 -2.25426,0 z"
           id="path4272" />
        <path
           d="m 523.87486,1000.8796 0.34155,2.7153 q -1.04174,0.2733 -1.87855,0.2733 -1.31498,0 -2.11763,-0.5124 -0.80266,-0.5294 -1.11006,-1.4345 -0.29032,-0.9051 -0.29032,-3.60338 l 0,-10.43448 -1.84439,0 0,-2.39089 1.84439,0 0,-4.49143 2.51043,-1.8444 0,6.33583 2.54458,0 0,2.39089 -2.54458,0 0,10.60526 q 0,1.46868 0.22201,1.8956 0.32447,0.6148 1.21252,0.6148 0.42694,0 1.11005,-0.1195 z"
           id="path4274" />
        <path
           d="m 526.24866,982.12824 0,-3.53508 2.51042,0 0,3.53508 -2.51042,0 z m 0,21.50086 0,-18.13655 2.51042,0 0,18.13655 -2.51042,0 z"
           id="path4276" />
        <path
           d="m 531.66229,994.56082 q 0,-4.69637 1.96394,-7.08725 1.98101,-2.39088 5.00377,-2.39088 2.97152,0 4.96961,2.39088 1.9981,2.39088 1.9981,6.8994 0,4.88422 -1.96394,7.27513 -1.96394,2.3909 -5.00377,2.3909 -2.9886,0 -4.98669,-2.3909 -1.98102,-2.40798 -1.98102,-7.08728 z m 2.57874,0 q 0,3.51801 1.28082,5.24286 1.28083,1.70782 3.17646,1.70782 1.77608,0 3.03983,-1.7249 1.28083,-1.74192 1.28083,-5.22578 0,-3.50093 -1.28083,-5.2087 -1.28083,-1.72485 -3.17645,-1.72485 -1.79316,0 -3.05691,1.72485 -1.26375,1.72485 -1.26375,5.2087 z"
           id="path4278" />
        <path
           d="m 548.58631,1003.6291 0,-18.13655 2.27133,0 0,2.57874 q 0.81973,-1.50284 1.9981,-2.23718 1.19544,-0.75142 2.73243,-0.75142 1.19544,0 2.20303,0.47818 1.02466,0.46109 1.63946,1.22959 0.63187,0.75142 0.93927,1.96394 0.3074,1.21252 0.3074,3.72294 l 0,11.15176 -2.5275,0 0,-11.03222 q 0,-1.99809 -0.34156,-2.92028 -0.34155,-0.9222 -1.07589,-1.41746 -0.71727,-0.51233 -1.67362,-0.51233 -1.81024,0 -2.88613,1.34914 -1.0759,1.34914 -1.0759,4.62806 l 0,9.90509 -2.51042,0 z"
           id="path4280" />
        <path
           d="m 563.6147,998.21545 2.49334,-0.47817 q 0.22201,1.9127 1.21252,2.85202 0.99051,0.9222 2.62997,0.9222 1.63946,0 2.5275,-0.8027 0.90512,-0.81973 0.90512,-2.0664 0,-1.0759 -0.7685,-1.67362 -0.52941,-0.40987 -2.56166,-1.02466 -2.93736,-0.90512 -3.92787,-1.537 -0.99051,-0.63187 -1.53699,-1.69069 -0.54649,-1.05882 -0.54649,-2.40796 0,-2.32257 1.48576,-3.77417 1.48576,-1.45161 4.11573,-1.45161 1.65654,0 2.90321,0.59772 1.26375,0.59772 1.92978,1.60531 0.66603,1.00758 0.9222,2.88613 l -2.45919,0.40986 q -0.34156,-2.97152 -3.22769,-2.97152 -1.63946,0 -2.44211,0.66603 -0.80266,0.64896 -0.80266,1.67362 0,1.00758 0.7685,1.58823 0.4611,0.34155 2.73244,1.09297 3.12522,1.00759 4.04741,1.60531 0.9222,0.58064 1.43453,1.6053 0.51233,1.00759 0.51233,2.40796 0,2.59579 -1.65653,4.20109 -1.63947,1.6053 -4.49144,1.6053 -5.34533,0 -6.19921,-5.84055 z"
           id="path4282" />
      </g>
      <g
         transform="scale(1.1308214,0.88431294)"
         style="font-style:normal;font-variant:normal;font-weight:normal;font-stretch:condensed;font-size:23.1138916px;line-height:125%;font-family:Arial;-inkscape-font-specification:'Arial, Condensed';text-align:start;letter-spacing:0px;word-spacing:0px;writing-mode:lr-tb;text-anchor:start;fill:#9c108e;fill-opacity:1;stroke:none;stroke-width:1px;stroke-linecap:butt;stroke-linejoin:miter;stroke-opacity:1"
         id="text10112-8">
        <path
           d="m 477.65127,859.28015 0,-16.54539 9.15301,0 0,1.95249 -7.35852,0 0,5.12388 6.36535,0 0,1.95249 -6.36535,0 0,7.51653 -1.79449,0 z"
           id="path4209" />
        <path
           d="m 488.26019,853.28724 q 0,-3.10367 1.2979,-4.68372 1.30918,-1.58005 3.30682,-1.58005 1.96378,0 3.28425,1.58005 1.32047,1.58005 1.32047,4.55958 0,3.22781 -1.2979,4.80787 -1.2979,1.58005 -3.30682,1.58005 -1.97506,0 -3.29554,-1.58005 -1.30918,-1.59134 -1.30918,-4.68373 z m 1.7042,0 q 0,2.32494 0.84645,3.46483 0.84646,1.12861 2.09921,1.12861 1.17376,0 2.00893,-1.1399 0.84645,-1.15118 0.84645,-3.45354 0,-2.31364 -0.84645,-3.44225 -0.84646,-1.1399 -2.09922,-1.1399 -1.18503,0 -2.0202,1.1399 -0.83517,1.13989 -0.83517,3.44225 z"
           id="path4211" />
        <path
           d="m 499.44469,859.28015 0,-11.98582 1.50105,0 0,1.81706 q 0.57559,-1.26404 1.04961,-1.67034 0.4853,-0.41758 1.08346,-0.41758 0.83517,0 1.7042,0.65459 l -0.56431,1.88478 q -0.62073,-0.44016 -1.20761,-0.44016 -0.53044,0 -0.9706,0.37244 -0.44016,0.37244 -0.62073,1.03832 -0.31601,1.16247 -0.31601,2.47165 l 0,6.27506 -1.65906,0 z"
           id="path4213" />
        <path
           d="m 511.18222,859.28015 0,-16.54539 1.79448,0 0,14.5929 6.68136,0 0,1.95249 -8.47584,0 z"
           id="path4215" />
        <path
           d="m 520.98982,853.28724 q 0,-3.10367 1.2979,-4.68372 1.30918,-1.58005 3.30682,-1.58005 1.96378,0 3.28425,1.58005 1.32047,1.58005 1.32047,4.55958 0,3.22781 -1.2979,4.80787 -1.2979,1.58005 -3.30682,1.58005 -1.97507,0 -3.29554,-1.58005 -1.30918,-1.59134 -1.30918,-4.68373 z m 1.7042,0 q 0,2.32494 0.84645,3.46483 0.84646,1.12861 2.09921,1.12861 1.17375,0 2.00892,-1.1399 0.84646,-1.15118 0.84646,-3.45354 0,-2.31364 -0.84646,-3.44225 -0.84645,-1.1399 -2.09921,-1.1399 -1.18503,0 -2.0202,1.1399 -0.83517,1.13989 -0.83517,3.44225 z"
           id="path4217" />
        <path
           d="m 533.9801,859.28015 -3.0021,-11.98582 1.72677,0 1.55748,6.91837 0.57559,2.57323 0.51916,-2.47165 1.55748,-7.01995 1.71548,0 1.46719,6.95223 0.49659,2.29107 0.56431,-2.31364 1.68162,-6.92966 1.6252,0 -3.0811,11.98582 -1.72677,0 -1.56877,-7.17795 -0.37244,-2.04278 -1.98635,9.22073 -1.74934,0 z"
           id="path4219" />
        <path
           d="m 552.57956,855.42031 1.71548,0.25958 q -0.42887,1.91864 -1.55748,2.90052 -1.11732,0.97061 -2.77638,0.97061 -2.08792,0 -3.38582,-1.58005 -1.28661,-1.59134 -1.28661,-4.58215 0,-3.10367 1.2979,-4.72887 1.30918,-1.63648 3.30682,-1.63648 1.90735,0 3.18267,1.60262 1.27533,1.60263 1.27533,4.63858 l -0.0113,0.54173 -7.33595,0 q 0.10158,2.02021 0.93675,3.04724 0.83517,1.02704 2.03149,1.02704 1.87349,0 2.60709,-2.46037 z m -5.47375,-3.28425 5.48503,0 q -0.11286,-1.55748 -0.66588,-2.32493 -0.80131,-1.11732 -2.04278,-1.11732 -1.11732,0 -1.90735,0.93674 -0.79002,0.92546 -0.86902,2.50551 z"
           id="path4221" />
        <path
           d="m 555.78481,855.70246 1.64776,-0.31601 q 0.14672,1.26404 0.80131,1.88478 0.6546,0.60945 1.73806,0.60945 1.08346,0 1.67034,-0.53045 0.59816,-0.54173 0.59816,-1.36561 0,-0.71103 -0.50787,-1.10604 -0.34987,-0.27087 -1.69291,-0.67716 -1.94121,-0.59817 -2.5958,-1.01575 -0.65459,-0.41759 -1.01575,-1.11732 -0.36115,-0.69974 -0.36115,-1.59134 0,-1.53491 0.98189,-2.49422 0.98189,-0.95932 2.71994,-0.95932 1.09475,0 1.91864,0.39501 0.83517,0.39501 1.27532,1.06089 0.44016,0.66588 0.60945,1.90735 l -1.62519,0.27087 q -0.22573,-1.96378 -2.13307,-1.96378 -1.08347,0 -1.61391,0.44016 -0.53045,0.42887 -0.53045,1.10603 0,0.66588 0.50787,1.04961 0.30473,0.22572 1.80578,0.72231 2.06535,0.66587 2.6748,1.06089 0.60945,0.38372 0.94803,1.06089 0.33858,0.66588 0.33858,1.59134 0,1.71548 -1.09475,2.77637 -1.08346,1.06089 -2.96824,1.06089 -3.53254,0 -4.09684,-3.85984 z"
           id="path4223" />
        <path
           d="m 569.61025,857.46309 0.22572,1.79449 q -0.68845,0.18058 -1.24147,0.18058 -0.86903,0 -1.39947,-0.33859 -0.53045,-0.34986 -0.7336,-0.94803 -0.19186,-0.59816 -0.19186,-2.38136 l 0,-6.89579 -1.2189,0 0,-1.58006 1.2189,0 0,-2.96823 1.65905,-1.2189 0,4.18713 1.68163,0 0,1.58006 -1.68163,0 0,7.00865 q 0,0.9706 0.14672,1.25276 0.21444,0.4063 0.80131,0.4063 0.28215,0 0.7336,-0.079 z"
           id="path4225" />
        <path
           d="m 576.70919,859.28015 0,-16.54539 5.1126,0 q 1.80577,0 2.66351,0.31601 1.17376,0.42887 1.87349,1.59134 0.69974,1.16246 0.69974,2.85537 0,2.23465 -1.13989,3.64541 -1.1399,1.41076 -3.93885,1.41076 l -3.47611,0 0,6.7265 -1.79449,0 z m 1.79449,-8.67899 3.50997,0 q 1.65906,0 2.42651,-0.74489 0.76745,-0.75616 0.76745,-2.2685 0,-0.98189 -0.38372,-1.68162 -0.37244,-0.69974 -0.91418,-0.95932 -0.53044,-0.25958 -1.92992,-0.25958 l -3.47611,0 0,5.91391 z"
           id="path4227" />
        <path
           d="m 588.48058,853.28724 q 0,-3.10367 1.2979,-4.68372 1.30918,-1.58005 3.30682,-1.58005 1.96378,0 3.28425,1.58005 1.32047,1.58005 1.32047,4.55958 0,3.22781 -1.2979,4.80787 -1.2979,1.58005 -3.30682,1.58005 -1.97507,0 -3.29554,-1.58005 -1.30918,-1.59134 -1.30918,-4.68373 z m 1.7042,0 q 0,2.32494 0.84645,3.46483 0.84646,1.12861 2.09921,1.12861 1.17376,0 2.00893,-1.1399 0.84645,-1.15118 0.84645,-3.45354 0,-2.31364 -0.84645,-3.44225 -0.84646,-1.1399 -2.09922,-1.1399 -1.18503,0 -2.0202,1.1399 -0.83517,1.13989 -0.83517,3.44225 z"
           id="path4229" />
        <path
           d="m 599.03306,855.70246 1.64777,-0.31601 q 0.14672,1.26404 0.80131,1.88478 0.65459,0.60945 1.73805,0.60945 1.08347,0 1.67034,-0.53045 0.59817,-0.54173 0.59817,-1.36561 0,-0.71103 -0.50788,-1.10604 -0.34987,-0.27087 -1.69291,-0.67716 -1.94121,-0.59817 -2.5958,-1.01575 -0.65459,-0.41759 -1.01575,-1.11732 -0.36115,-0.69974 -0.36115,-1.59134 0,-1.53491 0.98189,-2.49422 0.98189,-0.95932 2.71994,-0.95932 1.09475,0 1.91864,0.39501 0.83517,0.39501 1.27533,1.06089 0.44015,0.66588 0.60944,1.90735 l -1.62519,0.27087 q -0.22572,-1.96378 -2.13307,-1.96378 -1.08346,0 -1.61391,0.44016 -0.53045,0.42887 -0.53045,1.10603 0,0.66588 0.50788,1.04961 0.30472,0.22572 1.80577,0.72231 2.06535,0.66587 2.6748,1.06089 0.60945,0.38372 0.94803,1.06089 0.33858,0.66588 0.33858,1.59134 0,1.71548 -1.09475,2.77637 -1.08346,1.06089 -2.96823,1.06089 -3.53255,0 -4.09685,-3.85984 z"
           id="path4231" />
        <path
           d="m 608.51336,855.70246 1.64777,-0.31601 q 0.14672,1.26404 0.80131,1.88478 0.65459,0.60945 1.73805,0.60945 1.08347,0 1.67034,-0.53045 0.59817,-0.54173 0.59817,-1.36561 0,-0.71103 -0.50788,-1.10604 -0.34987,-0.27087 -1.69291,-0.67716 -1.9412,-0.59817 -2.5958,-1.01575 -0.65459,-0.41759 -1.01574,-1.11732 -0.36116,-0.69974 -0.36116,-1.59134 0,-1.53491 0.98189,-2.49422 0.98189,-0.95932 2.71995,-0.95932 1.09475,0 1.91863,0.39501 0.83517,0.39501 1.27533,1.06089 0.44015,0.66588 0.60944,1.90735 l -1.62519,0.27087 q -0.22572,-1.96378 -2.13307,-1.96378 -1.08346,0 -1.61391,0.44016 -0.53045,0.42887 -0.53045,1.10603 0,0.66588 0.50788,1.04961 0.30472,0.22572 1.80577,0.72231 2.06535,0.66587 2.6748,1.06089 0.60945,0.38372 0.94803,1.06089 0.33859,0.66588 0.33859,1.59134 0,1.71548 -1.09475,2.77637 -1.08347,1.06089 -2.96824,1.06089 -3.53255,0 -4.09685,-3.85984 z"
           id="path4233" />
        <path
           d="m 618.6257,845.07098 0,-2.33622 1.65905,0 0,2.33622 -1.65905,0 z m 0,14.20917 0,-11.98582 1.65905,0 0,11.98582 -1.65905,0 z"
           id="path4235" />
        <path
           d="m 624.35903,859.28015 -1.54619,0 0,-16.54539 1.65905,0 0,5.90262 q 0.53044,-0.8126 1.19632,-1.20761 0.67717,-0.4063 1.50105,-0.4063 1.15118,0 2.08793,0.68845 0.94803,0.68845 1.51233,2.08792 0.56431,1.39948 0.56431,3.39711 0,3.04725 -1.27533,4.7063 -1.27533,1.64777 -2.97953,1.64777 -0.85774,0 -1.54619,-0.44016 -0.67716,-0.45144 -1.17375,-1.33176 l 0,1.50105 z m -0.0226,-6.0832 q 0,1.86221 0.33858,2.78767 0.33858,0.92545 0.95932,1.41076 0.62073,0.4853 1.3769,0.4853 1.02703,0 1.81706,-1.15118 0.80131,-1.16247 0.80131,-3.46483 0,-2.35879 -0.76746,-3.46483 -0.76745,-1.10603 -1.88477,-1.10603 -1.02703,0 -1.83963,1.16246 -0.80131,1.15118 -0.80131,3.34068 z"
           id="path4237" />
        <path
           d="m 633.34274,859.28015 0,-16.54539 1.65906,0 0,16.54539 -1.65906,0 z"
           id="path4239" />
        <path
           d="m 644.31282,855.42031 1.71548,0.25958 q -0.42887,1.91864 -1.55748,2.90052 -1.11732,0.97061 -2.77637,0.97061 -2.08793,0 -3.38583,-1.58005 -1.28661,-1.59134 -1.28661,-4.58215 0,-3.10367 1.2979,-4.72887 1.30918,-1.63648 3.30682,-1.63648 1.90735,0 3.18267,1.60262 1.27533,1.60263 1.27533,4.63858 l -0.0113,0.54173 -7.33596,0 q 0.10158,2.02021 0.93675,3.04724 0.83517,1.02704 2.03149,1.02704 1.87349,0 2.60709,-2.46037 z m -5.47375,-3.28425 5.48503,0 q -0.11286,-1.55748 -0.66588,-2.32493 -0.80131,-1.11732 -2.04278,-1.11732 -1.11732,0 -1.90734,0.93674 -0.79003,0.92546 -0.86903,2.50551 z"
           id="path4241" />
        <path
           d="m 653.68025,859.28015 0,-16.54539 5.11259,0 q 1.80578,0 2.66352,0.31601 1.17375,0.42887 1.87349,1.59134 0.69973,1.16246 0.69973,2.85537 0,2.23465 -1.13989,3.64541 -1.13989,1.41076 -3.93884,1.41076 l -3.47611,0 0,6.7265 -1.79449,0 z m 1.79449,-8.67899 3.50997,0 q 1.65905,0 2.4265,-0.74489 0.76746,-0.75616 0.76746,-2.2685 0,-0.98189 -0.38373,-1.68162 -0.37244,-0.69974 -0.91417,-0.95932 -0.53045,-0.25958 -1.92992,-0.25958 l -3.47611,0 0,5.91391 z"
           id="path4243" />
        <path
           d="m 666.07237,859.28015 0,-11.98582 1.50105,0 0,1.81706 q 0.57559,-1.26404 1.0496,-1.67034 0.4853,-0.41758 1.08346,-0.41758 0.83517,0 1.7042,0.65459 l -0.5643,1.88478 q -0.62074,-0.44016 -1.20761,-0.44016 -0.53045,0 -0.97061,0.37244 -0.44015,0.37244 -0.62073,1.03832 -0.31601,1.16247 -0.31601,2.47165 l 0,6.27506 -1.65905,0 z"
           id="path4245" />
        <path
           d="m 672.39257,845.07098 0,-2.33622 1.65906,0 0,2.33622 -1.65906,0 z m 0,14.20917 0,-11.98582 1.65906,0 0,11.98582 -1.65906,0 z"
           id="path4247" />
        <path
           d="m 683.03535,854.88987 1.63648,0.25958 q -0.28215,2.14435 -1.42205,3.27296 -1.1286,1.12861 -2.71994,1.12861 -1.92992,0 -3.18268,-1.58005 -1.24146,-1.59134 -1.24146,-4.69501 0,-3.12625 1.25275,-4.68373 1.26404,-1.56876 3.23911,-1.56876 1.52362,0 2.56194,0.94803 1.0496,0.94803 1.34304,2.84409 l -1.61391,0.30473 q -0.23701,-1.2189 -0.82388,-1.81706 -0.58688,-0.60945 -1.41076,-0.60945 -1.23019,0 -2.04278,1.09475 -0.80132,1.08346 -0.80132,3.45354 0,2.44908 0.76746,3.54383 0.77874,1.09475 1.98635,1.09475 0.94803,0 1.61391,-0.72231 0.67716,-0.7336 0.85774,-2.2685 z"
           id="path4249" />
        <path
           d="m 692.7978,855.42031 1.71549,0.25958 q -0.42887,1.91864 -1.55748,2.90052 -1.11732,0.97061 -2.77638,0.97061 -2.08792,0 -3.38582,-1.58005 -1.28662,-1.59134 -1.28662,-4.58215 0,-3.10367 1.2979,-4.72887 1.30919,-1.63648 3.30682,-1.63648 1.90735,0 3.18268,1.60262 1.27533,1.60263 1.27533,4.63858 l -0.0113,0.54173 -7.33595,0 q 0.10157,2.02021 0.93674,3.04724 0.83517,1.02704 2.0315,1.02704 1.87349,0 2.60708,-2.46037 z m -5.47375,-3.28425 5.48504,0 q -0.11286,-1.55748 -0.66588,-2.32493 -0.80131,-1.11732 -2.04278,-1.11732 -1.11732,0 -1.90735,0.93674 -0.79002,0.92546 -0.86903,2.50551 z"
           id="path4251" />
        <path
           d="m 696.00306,855.70246 1.64777,-0.31601 q 0.14672,1.26404 0.80131,1.88478 0.65459,0.60945 1.73806,0.60945 1.08346,0 1.67034,-0.53045 0.59816,-0.54173 0.59816,-1.36561 0,-0.71103 -0.50788,-1.10604 -0.34986,-0.27087 -1.69291,-0.67716 -1.9412,-0.59817 -2.5958,-1.01575 -0.65459,-0.41759 -1.01574,-1.11732 -0.36116,-0.69974 -0.36116,-1.59134 0,-1.53491 0.98189,-2.49422 0.98189,-0.95932 2.71995,-0.95932 1.09475,0 1.91863,0.39501 0.83517,0.39501 1.27533,1.06089 0.44015,0.66588 0.60944,1.90735 l -1.62519,0.27087 q -0.22572,-1.96378 -2.13307,-1.96378 -1.08346,0 -1.61391,0.44016 -0.53045,0.42887 -0.53045,1.10603 0,0.66588 0.50788,1.04961 0.30472,0.22572 1.80577,0.72231 2.06535,0.66587 2.6748,1.06089 0.60945,0.38372 0.94803,1.06089 0.33859,0.66588 0.33859,1.59134 0,1.71548 -1.09475,2.77637 -1.08347,1.06089 -2.96824,1.06089 -3.53255,0 -4.09685,-3.85984 z"
           id="path4253" />
      </g>
    </g>
    <g
       transform="matrix(0.94914034,0,0,0.9336014,59.316578,36.35872)"
       id="g4338">
      <rect
         style="opacity:1;fill:#e92301;fill-opacity:1;stroke:#ffffff;stroke-width:1;stroke-linecap:butt;stroke-linejoin:bevel;stroke-miterlimit:4;stroke-dasharray:none;stroke-opacity:1"
         id="rect10217"
         width="113.13708"
         height="148.49243"
         x="849.04871"
         y="776.24341" />
      <path
         d="m 923.92504,793.35538 c -0.3321,-0.29091 -0.49814,-0.72729 -0.49814,-1.0182 0,-0.29092 0.16604,-0.72728 0.49814,-1.01819 l 2.32468,-2.0364 c 0.6642,-0.58183 1.66049,-0.58183 2.32468,0 l 0.16605,0.14553 9.13266,8.58195 c 0.3321,0.29092 0.83025,0.29092 1.16235,0 l 22.25049,-20.2185 0.16604,0 0,0 c 0.6642,-0.58183 1.66049,-0.58183 2.32468,0 l 2.32468,2.0364 c 0.6642,0.58183 0.6642,1.45457 0,2.0364 l 0,0 -26.56775,24.14583 c -0.3321,0.29092 -0.6642,0.43638 -1.16234,0.43638 -0.49815,0 -0.83024,-0.14554 -1.16234,-0.43638 l -12.95178,-12.21837 -0.3321,-0.43637 z"
         id="path4"
         style="fill:#ffffff;fill-opacity:1" />
      <path
         d="m 924.93519,824.165 c -0.3321,-0.29091 -0.49814,-0.72729 -0.49814,-1.0182 0,-0.29092 0.16604,-0.72728 0.49814,-1.01819 l 2.32468,-2.0364 c 0.6642,-0.58183 1.66049,-0.58183 2.32468,0 l 0.16605,0.14553 9.13266,8.58195 c 0.3321,0.29092 0.83025,0.29092 1.16235,0 l 22.25049,-20.2185 0.16604,0 0,0 c 0.6642,-0.58183 1.66049,-0.58183 2.32468,0 l 2.32468,2.0364 c 0.6642,0.58183 0.6642,1.45457 0,2.0364 l 0,0 -26.56775,24.14583 c -0.3321,0.29092 -0.6642,0.43638 -1.16234,0.43638 -0.49815,0 -0.83024,-0.14554 -1.16234,-0.43638 l -12.95178,-12.21837 -0.3321,-0.43637 z"
         id="path4-3"
         style="fill:#ffffff;fill-opacity:1" />
      <path
         d="m 924.93519,852.44927 c -0.3321,-0.29091 -0.49814,-0.72729 -0.49814,-1.0182 0,-0.29092 0.16604,-0.72728 0.49814,-1.01819 l 2.32468,-2.0364 c 0.6642,-0.58183 1.66049,-0.58183 2.32468,0 l 0.16605,0.14553 9.13265,8.58195 c 0.3321,0.29092 0.8303,0.29092 1.1624,0 l 22.2504,-20.2185 0.1661,0 0,0 c 0.6642,-0.58183 1.6605,-0.58183 2.3247,0 l 2.3246,2.0364 c 0.6642,0.58183 0.6642,1.45457 0,2.0364 l 0,0 -26.5677,24.14583 c -0.3321,0.29092 -0.6642,0.43638 -1.1623,0.43638 -0.4982,0 -0.8303,-0.14554 -1.1624,-0.43638 l -12.95176,-12.21837 -0.3321,-0.43637 z"
         id="path4-4"
         style="fill:#ffffff;fill-opacity:1" />
      <path
         d="m 924.93515,879.72339 c -0.3321,-0.29091 -0.4981,-0.72729 -0.4981,-1.0182 0,-0.29092 0.166,-0.72728 0.4981,-1.01819 l 2.3247,-2.0364 c 0.6642,-0.58183 1.6605,-0.58183 2.3247,0 l 0.166,0.14553 9.1327,8.58195 c 0.3321,0.29092 0.8302,0.29092 1.1623,0 l 22.2505,-20.2185 0.1661,0 0,0 c 0.6642,-0.58183 1.6605,-0.58183 2.3246,0 l 2.3247,2.0364 c 0.6642,0.58183 0.6642,1.45457 0,2.0364 l 0,0 -26.5677,24.14583 c -0.3321,0.29092 -0.6642,0.43638 -1.1624,0.43638 -0.4981,0 -0.8302,-0.14554 -1.1623,-0.43638 l -12.9518,-12.21837 -0.3321,-0.43637 z"
         id="path4-7"
         style="fill:#ffffff;fill-opacity:1" />
      <path
         d="m 924.93519,909.01781 c -0.3321,-0.29091 -0.49814,-0.72729 -0.49814,-1.0182 0,-0.29092 0.16604,-0.72728 0.49814,-1.01819 l 2.32468,-2.0364 c 0.6642,-0.58183 1.66049,-0.58183 2.32468,0 l 0.16605,0.14553 9.13266,8.58195 c 0.3321,0.29092 0.83025,0.29092 1.16235,0 l 22.25049,-20.2185 0.16604,0 0,0 c 0.6642,-0.58183 1.66049,-0.58183 2.32468,0 l 2.32466,2.0364 c 0.6642,0.58183 0.6642,1.45457 0,2.0364 l 0,0 -26.56773,24.14583 c -0.3321,0.29092 -0.6642,0.43638 -1.16234,0.43638 -0.49815,0 -0.83024,-0.14554 -1.16234,-0.43638 l -12.95178,-12.21837 -0.3321,-0.43637 z"
         id="path4-9"
         style="fill:#ffffff;fill-opacity:1" />
      <g
         transform="scale(1.1195004,0.8932556)"
         style="font-style:normal;font-weight:normal;font-size:10.56087112px;line-height:125%;font-family:sans-serif;letter-spacing:0px;word-spacing:0px;fill:#ffffff;fill-opacity:1;stroke:none;stroke-width:1px;stroke-linecap:butt;stroke-linejoin:miter;stroke-opacity:1"
         id="text10258">
        <path
           d="m 838.91587,873.54282 -2.74335,0 0,6.77072 -1.02103,0 0,-6.77072 -2.74335,0 0,-0.90757 6.50773,0 0,0.90757 z"
           id="path4285" />
        <path
           d="m 846.79527,880.31354 -1.02103,0 0,-6.61602 -2.13486,4.50178 -0.60849,0 -2.11939,-4.50178 0,6.61602 -0.95399,0 0,-7.67829 1.39231,0 2.0472,4.27488 1.98016,-4.27488 1.41809,0 0,7.67829 z"
           id="path4287" />
      </g>
      <g
         transform="scale(1.0909996,0.91659063)"
         style="font-style:normal;font-variant:normal;font-weight:normal;font-stretch:condensed;font-size:24.86056137px;line-height:125%;font-family:Arial;-inkscape-font-specification:'Arial, Condensed';text-align:start;letter-spacing:0px;word-spacing:0px;writing-mode:lr-tb;text-anchor:start;fill:#000000;fill-opacity:1;stroke:none;stroke-width:1px;stroke-linecap:butt;stroke-linejoin:miter;stroke-opacity:1"
         id="text10262">
        <path
           d="m 792.27925,1030.7702 q 1.34743,1.1289 2.47635,1.6509 l -0.57053,1.6388 q -1.60234,-0.7041 -3.13185,-2.185 -1.61448,1.1046 -3.56885,1.1046 -3.20468,0 -5.18333,-2.8041 -1.78442,-2.5249 -1.78442,-6.3851 0,-2.8891 0.95897,-5.0012 0.95898,-2.1243 2.51276,-3.1683 1.56593,-1.0561 3.5203,-1.0561 1.93009,0 3.50815,1.0925 1.59021,1.0804 2.5249,3.1683 0.9347,2.0757 0.9347,4.9163 0,2.2214 -0.58267,4.018 -0.57053,1.7965 -1.61448,3.0104 z m -4.26077,-3.0104 q 1.66304,0.5583 2.75554,1.6994 1.69946,-1.9179 1.69946,-5.7174 0,-2.2943 -0.65551,-3.8966 -0.64336,-1.6024 -1.79656,-2.4278 -1.14106,-0.8255 -2.50062,-0.8255 -2.16074,0 -3.59313,1.8209 -1.42026,1.8087 -1.42026,5.3775 0,3.5203 1.44454,5.3533 1.44453,1.8208 3.56885,1.8208 1.01967,0 1.94223,-0.4734 -0.89828,-0.7162 -1.91796,-1.0197 l 0.47342,-1.7115 z"
           id="path4290" />
        <path
           d="m 803.71414,1032.676 0,-1.8937 q -0.61908,1.0926 -1.45667,1.6388 -0.83759,0.5463 -1.89368,0.5463 -1.25031,0 -2.13645,-0.6677 -0.88615,-0.6798 -1.18962,-1.7116 -0.29133,-1.0318 -0.29133,-2.8162 l 0,-7.9874 1.78442,0 0,7.1498 q 0,1.9908 0.19422,2.6706 0.20637,0.6676 0.74048,1.0803 0.54625,0.4006 1.23817,0.4006 1.28673,0 2.11218,-1.0561 0.70406,-0.9104 0.70406,-3.3382 l 0,-6.907 1.79656,0 0,12.8915 -1.60234,0 z"
           id="path4292" />
        <path
           d="m 815.03978,1031.0858 q -0.89828,0.9347 -1.8694,1.4081 -0.97112,0.4735 -2.01506,0.4735 -1.6509,0 -2.63416,-0.9954 -0.98325,-0.9954 -0.98325,-2.6827 0,-1.1168 0.46128,-1.9787 0.46128,-0.8619 1.26245,-1.3474 0.80117,-0.4856 2.42779,-0.7162 2.18501,-0.3156 3.20468,-0.7526 l 0.0121,-0.5584 q 0,-1.3232 -0.47342,-1.8573 -0.66764,-0.7769 -2.05148,-0.7769 -1.25031,0 -1.8694,0.522 -0.61908,0.5098 -0.91042,1.9301 l -1.76015,-0.2913 q 0.37631,-2.0758 1.51737,-3.0226 1.1532,-0.9469 3.28966,-0.9469 1.66303,0 2.60987,0.6313 0.94684,0.619 1.18962,1.5416 0.25491,0.9226 0.25491,2.6948 l 0,2.9134 q 0,3.059 0.10925,3.8602 0.12139,0.789 0.46128,1.5416 l -1.86939,0 q -0.2792,-0.6676 -0.36417,-1.5902 z m -0.14567,-4.8798 q -0.98325,0.4855 -2.92548,0.8254 -1.12893,0.1942 -1.57807,0.4492 -0.44914,0.2427 -0.70406,0.704 -0.24278,0.4492 -0.24278,1.044 0,0.9225 0.57053,1.4809 0.57054,0.5463 1.57807,0.5463 0.95897,0 1.73587,-0.4977 0.78903,-0.4977 1.17747,-1.3232 0.38845,-0.8376 0.38845,-2.4278 l 0,-0.8011 z"
           id="path4294" />
        <path
           d="m 819.45835,1032.676 0,-17.7957 1.78443,0 0,17.7957 -1.78443,0 z"
           id="path4296" />
        <path
           d="m 824.0226,1017.3931 0,-2.5128 1.78442,0 0,2.5128 -1.78442,0 z m 0,15.2829 0,-12.8915 1.78442,0 0,12.8915 -1.78442,0 z"
           id="path4298" />
        <path
           d="m 832.532,1030.7217 0.24278,1.93 q -0.74048,0.1943 -1.33529,0.1943 -0.93469,0 -1.50523,-0.3642 -0.57053,-0.3763 -0.78903,-1.0197 -0.20636,-0.6433 -0.20636,-2.5613 l 0,-7.4169 -1.31101,0 0,-1.6994 1.31101,0 0,-3.1926 1.78443,-1.311 0,4.5036 1.8087,0 0,1.6994 -1.8087,0 0,7.5383 q 0,1.044 0.1578,1.3474 0.23064,0.437 0.86187,0.437 0.30347,0 0.78903,-0.085 z"
           id="path4300" />
        <path
           d="m 834.17076,1037.6409 -0.19423,-2.0515 q 0.59481,0.1942 1.01967,0.1942 0.57054,0 0.9347,-0.2306 0.37631,-0.2307 0.61909,-0.7162 0.085,-0.17 0.70406,-2.1365 l -4.01799,-12.9158 1.93009,0 2.20929,7.4654 q 0.41272,1.396 0.76475,2.9862 0.30348,-1.5052 0.72834,-2.9376 l 2.25784,-7.514 1.79657,0 -4.01799,13.11 q -0.78904,2.5492 -1.25032,3.3989 -0.44914,0.8619 -1.03181,1.2382 -0.57053,0.3763 -1.29886,0.3763 -0.50984,0 -1.1532,-0.267 z"
           id="path4302" />
      </g>
      <g
         transform="scale(1.0190175,0.98133742)"
         style="font-style:normal;font-variant:normal;font-weight:normal;font-stretch:condensed;font-size:25.48435402px;line-height:125%;font-family:Arial;-inkscape-font-specification:'Arial, Condensed';text-align:start;letter-spacing:0px;word-spacing:0px;writing-mode:lr-tb;text-anchor:start;fill:#000000;fill-opacity:1;stroke:none;stroke-width:1px;stroke-linecap:butt;stroke-linejoin:miter;stroke-opacity:1"
         id="text10266">
        <path
           d="m 836.2699,991.92548 0,-18.24222 1.97852,0 0,18.24222 -1.97852,0 z"
           id="path4305" />
        <path
           d="m 841.04821,986.06457 1.86653,-0.19909 q 0.14932,1.50566 0.67195,2.35182 0.53507,0.83372 1.51811,1.3439 0.98304,0.51019 2.21495,0.51019 1.76698,0 2.73758,-0.8586 0.98304,-0.87105 0.98304,-2.25228 0,-0.80883 -0.36086,-1.40612 -0.34842,-0.60974 -1.07015,-0.99549 -0.70928,-0.38574 -3.08599,-1.08258 -2.1154,-0.62218 -3.01134,-1.2568 -0.89593,-0.63462 -1.39367,-1.60521 -0.49775,-0.98304 -0.49775,-2.21495 0,-2.21495 1.43101,-3.62107 1.43101,-1.40612 3.8575,-1.40612 1.66743,0 2.91178,0.65951 1.2568,0.6595 1.94119,1.89141 0.69684,1.23191 0.74662,2.89935 l -1.90387,0.17421 q -0.14932,-1.77943 -1.07014,-2.63803 -0.90838,-0.85861 -2.56337,-0.85861 -1.67987,0 -2.56336,0.75906 -0.88349,0.74661 -0.88349,1.94119 0,1.10747 0.64706,1.71721 0.64706,0.60973 2.91179,1.23191 2.21494,0.60973 3.11088,1.0577 1.36879,0.69684 2.06562,1.84164 0.69684,1.13236 0.69684,2.71269 0,1.56789 -0.73417,2.86201 -0.73416,1.28169 -2.0034,1.95364 -1.2568,0.67195 -3.03623,0.67195 -2.7749,0 -4.42989,-1.66744 -1.64255,-1.66743 -1.70477,-4.517 z"
           id="path4307" />
        <path
           d="m 855.09696,983.04079 q 0,-4.66632 2.05318,-7.16747 2.05319,-2.51359 5.1143,-2.51359 1.97852,0 3.60862,1.11991 1.6301,1.11992 2.57581,3.26021 0.95815,2.12784 0.95815,5.07696 0,4.05659 -1.84164,6.60752 -2.0283,2.81223 -5.31339,2.81223 -3.30998,0 -5.32583,-2.8869 -1.8292,-2.61314 -1.8292,-6.30887 z m 2.04074,0.0373 q 0,3.3722 1.48078,5.23873 1.49322,1.85409 3.62107,1.85409 2.17762,0 3.64595,-1.87898 1.48078,-1.87897 1.48078,-5.52492 0,-2.35183 -0.75905,-4.20592 -0.58485,-1.41856 -1.76698,-2.26472 -1.1697,-0.8586 -2.56337,-0.8586 -2.23984,0 -3.69573,1.86653 -1.44345,1.86653 -1.44345,5.77379 z"
           id="path4309" />
        <path
           d="m 877.24645,987.70712 1.76698,-0.1991 q 0.42308,2.8869 2.48871,2.8869 0.92082,0 1.66743,-0.62218 0.75905,-0.63462 1.28168,-2.23983 0.52263,-1.60522 0.52263,-3.7455 l 0,-0.44797 q -0.5724,1.10747 -1.543,1.75454 -0.97059,0.64706 -1.97852,0.64706 -1.8292,0 -3.16066,-1.59277 -1.31901,-1.60522 -1.31901,-4.38012 0,-2.86202 1.36879,-4.50456 1.38123,-1.65499 3.34731,-1.65499 1.39367,0 2.6007,0.92082 1.20702,0.92082 1.86653,2.71269 0.6595,1.79187 0.6595,5.16406 0,3.75795 -0.70928,5.83602 -0.70928,2.07807 -1.92874,3.03622 -1.20703,0.95815 -2.71269,0.95815 -1.70477,0 -2.84957,-1.15724 -1.14481,-1.1697 -1.36879,-3.3722 z m 7.52833,-8.05097 q 0,-1.95363 -0.87104,-3.07355 -0.87105,-1.11992 -2.00341,-1.11992 -1.18214,0 -2.1154,1.19458 -0.92082,1.19458 -0.92082,3.18555 0,1.79186 0.88349,2.86201 0.88349,1.0577 2.1154,1.0577 1.21946,0 2.06562,-1.07014 0.84616,-1.07015 0.84616,-3.03623 z"
           id="path4311" />
        <path
           d="m 888.61983,982.9288 q 0,-4.59166 1.23191,-6.95593 1.24436,-2.36427 3.6584,-2.36427 2.14029,0 3.3722,1.9163 1.49322,2.3145 1.49322,7.4039 0,4.56678 -1.23191,6.94349 -1.23191,2.36427 -3.65839,2.36427 -2.14029,0 -3.50908,-2.09051 -1.35635,-2.09051 -1.35635,-7.21725 z m 1.87898,0 q 0,4.44234 0.84616,5.96045 0.8586,1.50567 2.19006,1.50567 1.2568,0 2.10296,-1.53055 0.84616,-1.53056 0.84616,-5.93557 0,-4.45478 -0.85861,-5.96045 -0.84616,-1.50567 -2.2025,-1.50567 -1.24436,0 -2.09052,1.53056 -0.83371,1.53055 -0.83371,5.93556 z"
           id="path4313" />
        <path
           d="m 900.26698,982.9288 q 0,-4.59166 1.23191,-6.95593 1.24436,-2.36427 3.6584,-2.36427 2.14029,0 3.3722,1.9163 1.49322,2.3145 1.49322,7.4039 0,4.56678 -1.23191,6.94349 -1.23191,2.36427 -3.6584,2.36427 -2.14028,0 -3.50907,-2.09051 -1.35635,-2.09051 -1.35635,-7.21725 z m 1.87898,0 q 0,4.44234 0.84616,5.96045 0.8586,1.50567 2.19006,1.50567 1.25679,0 2.10295,-1.53055 0.84616,-1.53056 0.84616,-5.93557 0,-4.45478 -0.8586,-5.96045 -0.84616,-1.50567 -2.2025,-1.50567 -1.24436,0 -2.09052,1.53056 -0.83371,1.53055 -0.83371,5.93556 z"
           id="path4315" />
        <path
           d="m 918.83273,991.92548 -1.84164,0 0,-14.27274 q -0.63462,0.74662 -1.70476,1.53056 -1.07015,0.7715 -1.96608,1.16969 l 0,-2.16517 q 1.51811,-0.87105 2.67536,-2.12785 1.16969,-1.25679 1.64255,-2.45137 l 1.19457,0 0,18.31688 z"
           id="path4317" />
      </g>
      <g
         transform="scale(0.86142223,1.1608709)"
         style="font-style:normal;font-variant:normal;font-weight:normal;font-stretch:condensed;font-size:20.36911392px;line-height:125%;font-family:Arial;-inkscape-font-specification:'Arial, Condensed';text-align:start;letter-spacing:0px;word-spacing:0px;writing-mode:lr-tb;text-anchor:start;fill:#000000;fill-opacity:1;stroke:none;stroke-width:1px;stroke-linecap:butt;stroke-linejoin:miter;stroke-opacity:1"
         id="text10270">
        <path
           d="m 1020.1935,857.34486 1.4919,-0.15913 q 0.1193,1.20344 0.5371,1.87976 0.4276,0.66638 1.2134,1.07416 0.7857,0.40778 1.7703,0.40778 1.4123,0 2.1881,-0.68627 0.7857,-0.69621 0.7857,-1.8002 0,-0.64648 -0.2884,-1.12388 -0.2785,-0.48735 -0.8553,-0.79567 -0.567,-0.30832 -2.4666,-0.86529 -1.6908,-0.49729 -2.4069,-1.00453 -0.7161,-0.50724 -1.1139,-1.28302 -0.3979,-0.78572 -0.3979,-1.77036 0,-1.77036 1.1438,-2.89424 1.1438,-1.12388 3.0832,-1.12388 1.3328,0 2.3273,0.52713 1.0046,0.52713 1.5516,1.51177 0.557,0.98464 0.5967,2.31738 l -1.5217,0.13924 q -0.1193,-1.42225 -0.8553,-2.10852 -0.7261,-0.68626 -2.0489,-0.68626 -1.3427,0 -2.0488,0.60669 -0.7062,0.59676 -0.7062,1.55156 0,0.88518 0.5172,1.37253 0.5172,0.48734 2.3273,0.98464 1.7704,0.48734 2.4865,0.84539 1.0941,0.55697 1.651,1.47199 0.557,0.90507 0.557,2.1682 0,1.25318 -0.5868,2.28754 -0.5868,1.02443 -1.6013,1.5615 -1.0045,0.53708 -2.4268,0.53708 -2.2179,0 -3.5407,-1.33274 -1.3129,-1.33275 -1.3626,-3.61035 z"
           id="path4320" />
        <path
           d="m 1030.5571,862.02936 4.595,-14.58063 1.7007,0 4.8934,14.58063 -1.8102,0 -1.3924,-4.41596 -4.9928,0 -1.3129,4.41596 -1.6808,0 z m 3.4512,-5.98741 4.048,0 -1.2433,-4.03802 q -0.5768,-1.85987 -0.8454,-3.02354 -0.2287,1.40237 -0.6464,2.78484 l -1.3129,4.27672 z"
           id="path4322" />
        <path
           d="m 1042.1639,857.89188 1.4223,-0.2387 q 0.06,1.6709 0.5171,2.28755 0.4576,0.61664 1.2632,0.61664 0.5669,0 0.9946,-0.30832 0.4376,-0.31827 0.5868,-0.79567 0.2088,-0.64648 0.2088,-1.95933 l 0,-10.04532 1.5814,0 0,9.93591 q 0,2.68538 -0.8852,3.78937 -0.8752,1.10399 -2.4765,1.10399 -1.5615,0 -2.3273,-0.99458 -0.8852,-1.13383 -0.8852,-3.39154 z"
           id="path4324" />
        <path
           d="m 1061.6478,856.31049 0,-1.71069 5.0625,-0.01 0,5.41054 q -1.1637,1.13383 -2.4069,1.71069 -1.2433,0.56691 -2.5561,0.56691 -1.7505,0 -3.123,-0.87523 -1.3725,-0.87524 -2.1781,-2.55609 -0.7957,-1.68085 -0.7957,-4.03801 0,-2.38701 0.8056,-4.15737 0.8056,-1.77036 2.1085,-2.60582 1.3029,-0.84539 3.0832,-0.84539 1.3129,0 2.2975,0.48734 0.9847,0.48735 1.6212,1.38248 0.6365,0.89512 0.9548,2.45662 l -1.4223,0.4774 q -0.2884,-1.23328 -0.726,-1.83998 -0.4376,-0.61664 -1.1537,-0.96475 -0.7161,-0.3481 -1.6112,-0.3481 -1.303,0 -2.2478,0.63653 -0.9349,0.62659 -1.5118,1.95934 -0.5669,1.33274 -0.5669,3.25229 0,2.92408 1.2233,4.38612 1.2234,1.4521 3.1827,1.4521 0.9349,0 1.9096,-0.44756 0.9847,-0.44757 1.5615,-1.06421 l 0,-2.71522 -3.5109,0 z"
           id="path4326" />
        <path
           d="m 1068.9282,862.02936 0,-14.58063 1.5814,0 0,12.85999 5.8879,0 0,1.72064 -7.4693,0 z"
           id="path4328" />
        <path
           d="m 1077.8894,854.92802 q 0,-3.7297 1.6411,-5.72882 1.6411,-2.00906 4.0877,-2.00906 1.5814,0 2.8843,0.89513 1.3029,0.89512 2.0588,2.60581 0.7659,1.70074 0.7659,4.05791 0,3.24235 -1.472,5.28125 -1.6212,2.24776 -4.2469,2.24776 -2.6456,0 -4.2568,-2.30743 -1.4621,-2.08863 -1.4621,-5.04255 z m 1.6311,0.0298 q 0,2.69533 1.1836,4.18721 1.1935,1.48193 2.8942,1.48193 1.7406,0 2.9142,-1.50182 1.1835,-1.50183 1.1835,-4.41596 0,-1.87977 -0.6067,-3.3617 -0.4674,-1.13383 -1.4123,-1.81015 -0.9349,-0.68626 -2.0488,-0.68626 -1.7903,0 -2.9539,1.49188 -1.1538,1.49188 -1.1538,4.61487 z"
           id="path4330" />
        <path
           d="m 1091.2865,862.02936 0,-14.58063 4.4856,0 q 1.3625,0 2.1582,0.42767 0.7957,0.41773 1.3029,1.31286 0.5073,0.89512 0.5073,1.97922 0,1.00453 -0.4377,1.81015 -0.4376,0.80561 -1.2332,1.29296 1.0443,0.37794 1.641,1.29296 0.6067,0.90507 0.6067,2.23782 0,1.3228 -0.547,2.32733 -0.5371,0.99458 -1.4421,1.45209 -0.9051,0.44757 -2.4865,0.44757 l -4.5552,0 z m 1.5814,-8.45398 2.5859,0 q 1.0145,0 1.4421,-0.13924 0.6167,-0.20887 0.9449,-0.69621 0.3382,-0.49729 0.3382,-1.34269 0,-0.78573 -0.3084,-1.30291 -0.2983,-0.52713 -0.8056,-0.72605 -0.4973,-0.19891 -1.8002,-0.19891 l -2.3969,0 0,4.40601 z m 0,6.73334 2.9738,0 q 0.9846,0 1.4521,-0.17902 0.6763,-0.25859 1.0244,-0.8454 0.3581,-0.59675 0.3581,-1.49188 0,-0.8255 -0.3382,-1.39242 -0.3382,-0.57686 -0.915,-0.83545 -0.5669,-0.26854 -1.7903,-0.26854 l -2.7649,0 0,5.01271 z"
           id="path4332" />
        <path
           d="m 1101.1727,862.02936 4.595,-14.58063 1.7007,0 4.8934,14.58063 -1.8102,0 -1.3924,-4.41596 -4.9928,0 -1.3129,4.41596 -1.6808,0 z m 3.4512,-5.98741 4.0479,0 -1.2432,-4.03802 q -0.5768,-1.85987 -0.8454,-3.02354 -0.2287,1.40237 -0.6465,2.78484 l -1.3128,4.27672 z"
           id="path4334" />
        <path
           d="m 1113.5254,862.02936 0,-14.58063 1.5814,0 0,12.85999 5.888,0 0,1.72064 -7.4694,0 z"
           id="path4336" />
      </g>
      <ellipse
         style="opacity:1;fill:#e92301;fill-opacity:1;stroke:#ffffff;stroke-width:1;stroke-linecap:butt;stroke-linejoin:bevel;stroke-miterlimit:4;stroke-dasharray:none;stroke-opacity:1"
         id="path10274"
         cx="863.19086"
         cy="992.92114"
         rx="11.111678"
         ry="10.606602" />
      <ellipse
         style="opacity:1;fill:#ffffff;fill-opacity:1;stroke:#ffffff;stroke-width:1;stroke-linecap:butt;stroke-linejoin:bevel;stroke-miterlimit:4;stroke-dasharray:none;stroke-opacity:1"
         id="path10276"
         cx="865.71625"
         cy="993.42621"
         rx="3.5355339"
         ry="7.0710678" />
    </g>
  </g>
</svg>
