<?xml version="1.0" encoding="UTF-8" standalone="no"?>
<svg
   xmlns:dc="http://purl.org/dc/elements/1.1/"
   xmlns:cc="http://creativecommons.org/ns#"
   xmlns:rdf="http://www.w3.org/1999/02/22-rdf-syntax-ns#"
   xmlns:svg="http://www.w3.org/2000/svg"
   xmlns="http://www.w3.org/2000/svg"
   version="1.1"
   id="svg2"
   viewBox="0 0 1052.3622 526.18109"
   height="148.5mm"
   width="297mm">
  <defs
     id="defs4" />
  <metadata
     id="metadata7">
    <rdf:RDF>
      <cc:Work
         rdf:about="">
        <dc:format>image/svg+xml</dc:format>
        <dc:type
           rdf:resource="http://purl.org/dc/dcmitype/StillImage" />
        <dc:title></dc:title>
      </cc:Work>
    </rdf:RDF>
  </metadata>
  <g
     transform="translate(0,-526.18111)"
     id="layer1">
    <g
       style="fill:#064a67;fill-opacity:1"
       transform="matrix(5.1283553,0,0,5.5327375,485.67964,508.70033)"
       id="g4209">
      <g
         style="fill:#064a67;fill-opacity:1"
         id="g4165">
        <g
           style="fill:#064a67;fill-opacity:1"
           id="g4167">
          <path
             style="fill:#064a67;fill-opacity:1"
             d="m 97.265,71.261 c -0.093,-0.108 -0.23,-0.172 -0.374,-0.172 l -96.397,0 c -0.144,0 -0.28,0.063 -0.374,0.172 -0.094,0.108 -0.136,0.253 -0.115,0.396 0.014,0.09 1.468,9.016 12.753,9.016 l 71.869,0 c 11.284,0 12.738,-8.926 12.753,-9.016 0.02,-0.143 -0.022,-0.288 -0.115,-0.396 z m -41.323,6.286 -14.5,0 0,-3.334 14.5,0 0,3.334 z"
             id="path4169" />
          <path
             style="fill:#064a67;fill-opacity:1"
             d="m 10.507,67.619 76.37,0 c 1.104,0 2,-0.896 2,-2 l 0,-46.906 c 0,-1.104 -0.896,-2 -2,-2 l -76.37,0 c -1.104,0 -2,0.896 -2,2 l 0,46.906 c 0,1.104 0.896,2 2,2 z m 5,-43.906 66.37,0 0,36.906 -66.37,0 0,-36.906 z"
             id="path4171" />
        </g>
      </g>
      <g
         style="fill:#064a67;fill-opacity:1"
         id="g4173" />
      <g
         style="fill:#064a67;fill-opacity:1"
         id="g4175" />
      <g
         style="fill:#064a67;fill-opacity:1"
         id="g4177" />
      <g
         style="fill:#064a67;fill-opacity:1"
         id="g4179" />
      <g
         style="fill:#064a67;fill-opacity:1"
         id="g4181" />
      <g
         style="fill:#064a67;fill-opacity:1"
         id="g4183" />
      <g
         style="fill:#064a67;fill-opacity:1"
         id="g4185" />
      <g
         style="fill:#064a67;fill-opacity:1"
         id="g4187" />
      <g
         style="fill:#064a67;fill-opacity:1"
         id="g4189" />
      <g
         style="fill:#064a67;fill-opacity:1"
         id="g4191" />
      <g
         style="fill:#064a67;fill-opacity:1"
         id="g4193" />
      <g
         style="fill:#064a67;fill-opacity:1"
         id="g4195" />
      <g
         style="fill:#064a67;fill-opacity:1"
         id="g4197" />
      <g
         style="fill:#064a67;fill-opacity:1"
         id="g4199" />
      <g
         style="fill:#064a67;fill-opacity:1"
         id="g4201" />
    </g>
    <g
       style="fill:#8e0000;fill-opacity:1"
       transform="matrix(2.5250194,0,0,3.1975659,608.87792,584.41137)"
       id="g4277">
      <g
         style="fill:#8e0000;fill-opacity:1"
         id="g4231">
        <g
           style="fill:#8e0000;fill-opacity:1"
           id="g4233">
          <path
             style="fill:#8e0000;fill-opacity:1"
             d="m 17.275,52.156 c -4.124,0 -7.468,3.343 -7.468,7.468 0,0.318 0.026,0.631 0.066,0.938 0.463,3.681 3.596,6.528 7.401,6.528 3.908,0 7.112,-3.004 7.437,-6.83 0.017,-0.209 0.031,-0.422 0.031,-0.637 10e-4,-4.124 -3.342,-7.467 -7.467,-7.467 z m -3.738,4.654 1.522,1.523 c -0.118,0.203 -0.211,0.422 -0.271,0.656 l -2.146,0 c 0.11,-0.812 0.421,-1.554 0.895,-2.179 z m -0.905,3.472 2.163,0 c 0.061,0.23 0.151,0.448 0.271,0.648 l -1.526,1.525 c -0.473,-0.62 -0.791,-1.362 -0.908,-2.173 z m 3.997,3.981 C 15.82,64.15 15.085,63.833 14.463,63.364 l 1.518,-1.519 c 0.2,0.117 0.419,0.203 0.648,0.263 l 0,2.155 z m 0,-7.123 c -0.235,0.062 -0.455,0.154 -0.66,0.275 l -1.521,-1.521 c 0.625,-0.475 1.367,-0.789 2.181,-0.902 l 0,2.148 z m 1.293,-2.15 c 0.814,0.113 1.557,0.429 2.181,0.903 l -1.52,1.521 c -0.204,-0.121 -0.426,-0.213 -0.66,-0.275 l -10e-4,-2.149 0,0 z m 0,9.271 0,-2.152 c 0.23,-0.061 0.447,-0.146 0.647,-0.264 l 1.519,1.519 c -0.622,0.469 -1.358,0.784 -2.166,0.897 z m 3.092,-1.799 -1.531,-1.533 c 0.12,-0.201 0.217,-0.416 0.278,-0.646 l 2.146,0 c -0.114,0.808 -0.419,1.556 -0.893,2.179 z m -1.25,-3.473 c -0.061,-0.234 -0.153,-0.453 -0.271,-0.656 l 1.524,-1.523 c 0.471,0.625 0.782,1.367 0.894,2.18 l -2.147,0 z"
             id="path4235" />
          <path
             style="fill:#8e0000;fill-opacity:1"
             d="m 79.284,52.156 c -4.124,0 -7.468,3.343 -7.468,7.468 0,0.318 0.026,0.631 0.066,0.938 0.463,3.681 3.596,6.528 7.4,6.528 3.908,0 7.112,-3.004 7.438,-6.83 0.017,-0.209 0.031,-0.422 0.031,-0.637 0.002,-4.124 -3.342,-7.467 -7.467,-7.467 z m -3.738,4.654 1.521,1.523 c -0.118,0.203 -0.211,0.422 -0.271,0.656 l -2.146,0 c 0.111,-0.812 0.422,-1.554 0.896,-2.179 z m -0.904,3.472 2.163,0 c 0.061,0.23 0.151,0.448 0.271,0.648 l -1.525,1.525 c -0.475,-0.62 -0.794,-1.362 -0.909,-2.173 z m 3.996,3.981 c -0.809,-0.113 -1.544,-0.43 -2.166,-0.899 l 1.518,-1.519 c 0.2,0.117 0.419,0.203 0.648,0.263 l 0,2.155 z m 0,-7.123 c -0.235,0.062 -0.455,0.154 -0.66,0.275 l -1.521,-1.521 c 0.625,-0.475 1.366,-0.789 2.181,-0.902 l 0,2.148 z m 1.294,-2.15 c 0.814,0.113 1.557,0.429 2.181,0.903 l -1.521,1.521 c -0.204,-0.121 -0.426,-0.215 -0.66,-0.275 l 0,-2.149 z m 0,9.271 0,-2.152 c 0.23,-0.061 0.447,-0.146 0.647,-0.264 l 1.519,1.519 c -0.622,0.469 -1.359,0.784 -2.166,0.897 z m 3.091,-1.799 -1.531,-1.531 c 0.12,-0.202 0.218,-0.416 0.278,-0.647 l 2.146,0 c -0.114,0.807 -0.418,1.555 -0.893,2.178 z m -1.25,-3.473 c -0.061,-0.234 -0.152,-0.453 -0.271,-0.656 l 1.523,-1.523 c 0.472,0.625 0.782,1.367 0.895,2.18 l -2.147,0 z"
             id="path4237" />
          <path
             style="fill:#8e0000;fill-opacity:1"
             d="m 97.216,48.29 0,-5.526 c 0,-0.889 -0.646,-1.642 -1.524,-1.779 -2.107,-0.33 -5.842,-0.953 -7.52,-1.47 -2.406,-0.742 -11.702,-4.678 -14.921,-5.417 -3.22,-0.739 -17.738,-4.685 -31.643,0.135 -2.353,0.815 -12.938,5.875 -19.162,8.506 -1.833,0.04 -19.976,3.822 -20.942,6.414 -0.966,2.593 -1.269,3.851 -1.447,4.509 -0.178,0.658 0,3.807 1.348,6 1.374,0.777 4.019,1.299 7.077,1.649 C 8.447,61.124 8.409,60.94 8.385,60.751 8.332,60.347 8.307,59.978 8.307,59.626 c 0,-4.945 4.022,-8.969 8.968,-8.969 4.946,0 8.968,4.023 8.968,8.969 0,0.254 -0.017,0.506 -0.036,0.754 -0.047,0.555 -0.147,1.094 -0.292,1.613 0.007,0 0.024,0 0.024,0 l 44.516,-0.896 c -0.02,-0.115 -0.046,-0.229 -0.061,-0.346 -0.053,-0.402 -0.078,-0.772 -0.078,-1.125 0,-4.945 4.022,-8.968 8.968,-8.968 4.946,0 8.969,4.022 8.969,8.968 0,0.019 -0.002,0.035 -0.003,0.053 l 0.19,-0.016 7.611,-1.433 c 0,0 2.915,-1.552 2.915,-5.822 0.001,-2.848 -1.75,-4.118 -1.75,-4.118 z M 53.057,43.051 36.432,43.56 c 0.306,-2.491 -1.169,-3.05 -1.169,-3.05 6.609,-5.999 19.929,-6.202 19.929,-6.202 l -2.135,8.743 z m 18.658,-0.761 -15.15,0.509 1.373,-8.49 c 7.83,-0.102 12.303,1.626 12.303,1.626 l 2.237,3.61 -0.763,2.745 z m 8.541,-0.052 -4.221,0 -4.22,-5.795 c 3.166,1.26 5.7,2.502 7.209,3.287 0.916,0.476 1.416,1.493 1.232,2.508 z"
             id="path4239" />
        </g>
      </g>
      <g
         style="fill:#8e0000;fill-opacity:1"
         id="g4241" />
      <g
         style="fill:#8e0000;fill-opacity:1"
         id="g4243" />
      <g
         style="fill:#8e0000;fill-opacity:1"
         id="g4245" />
      <g
         style="fill:#8e0000;fill-opacity:1"
         id="g4247" />
      <g
         style="fill:#8e0000;fill-opacity:1"
         id="g4249" />
      <g
         style="fill:#8e0000;fill-opacity:1"
         id="g4251" />
      <g
         style="fill:#8e0000;fill-opacity:1"
         id="g4253" />
      <g
         style="fill:#8e0000;fill-opacity:1"
         id="g4255" />
      <g
         style="fill:#8e0000;fill-opacity:1"
         id="g4257" />
      <g
         style="fill:#8e0000;fill-opacity:1"
         id="g4259" />
      <g
         style="fill:#8e0000;fill-opacity:1"
         id="g4261" />
      <g
         style="fill:#8e0000;fill-opacity:1"
         id="g4263" />
      <g
         style="fill:#8e0000;fill-opacity:1"
         id="g4265" />
      <g
         style="fill:#8e0000;fill-opacity:1"
         id="g4267" />
      <g
         style="fill:#8e0000;fill-opacity:1"
         id="g4269" />
    </g>
    <g
       id="g4162"
       transform="matrix(0.77725434,0,0,0.85630915,1.0239269,421.92578)">
      <ellipse
         style="opacity:1;fill:#2b689d;fill-opacity:1;stroke:#2b689d;stroke-width:1.97081327;stroke-linecap:round;stroke-linejoin:round;stroke-miterlimit:4;stroke-dasharray:none;stroke-opacity:1"
         id="path4175"
         cx="562.90283"
         cy="282.82172"
         rx="62.141457"
         ry="60.978905" />
      <text
         xml:space="preserve"
         style="font-style:normal;font-variant:normal;font-weight:normal;font-stretch:normal;font-size:359.22442627px;line-height:125%;font-family:Calibri;-inkscape-font-specification:'Calibri, Normal';text-align:start;letter-spacing:0px;word-spacing:0px;writing-mode:lr-tb;text-anchor:start;fill:#ffffff;fill-opacity:1;stroke:none;stroke-width:1px;stroke-linecap:butt;stroke-linejoin:miter;stroke-opacity:1"
         x="451.63306"
         y="476.78802"
         id="text4147-8"
         transform="scale(1.0409639,0.96064811)"><tspan
           id="tspan4197"
           x="451.63306"
           y="476.78802">*</tspan></text>
      <ellipse
         style="opacity:1;fill:#ffffff;fill-opacity:1;stroke:#343434;stroke-width:40.62425995;stroke-linecap:round;stroke-linejoin:round;stroke-miterlimit:4;stroke-dasharray:none;stroke-opacity:1"
         id="path4201"
         cx="409.39142"
         cy="366.16559"
         rx="77.898483"
         ry="78.604942" />
      <rect
         style="opacity:1;fill:#343434;fill-opacity:1;stroke:#343434;stroke-width:1.23622894;stroke-linecap:butt;stroke-linejoin:bevel;stroke-miterlimit:4;stroke-dasharray:none;stroke-opacity:1"
         id="rect4220"
         width="53.010429"
         height="130.12512"
         x="16.60236"
         y="521.15222"
         ry="0"
         transform="matrix(1,0,0.70211368,0.71206487,0,0)" />
      <rect
         style="opacity:1;fill:#343434;fill-opacity:1;stroke:#343434;stroke-width:1.31299996;stroke-linecap:butt;stroke-linejoin:bevel;stroke-miterlimit:4;stroke-dasharray:none;stroke-opacity:1"
         id="rect4237"
         width="112.11994"
         height="38.687202"
         x="198.04747"
         y="267.46124" />
      <rect
         style="opacity:1;fill:#343434;fill-opacity:1;stroke:#343434;stroke-width:1.32060897;stroke-linecap:butt;stroke-linejoin:bevel;stroke-miterlimit:4;stroke-dasharray:none;stroke-opacity:1"
         id="rect4262"
         width="38.67939"
         height="88.123024"
         x="146.01308"
         y="323.95551" />
      <path
         style="opacity:1;fill:none;fill-opacity:1;stroke:#343434;stroke-width:40;stroke-linecap:butt;stroke-linejoin:bevel;stroke-miterlimit:4;stroke-dasharray:none;stroke-opacity:1"
         id="path4264"
         d="m 165.7276,325.48056 a 36.084908,36.438679 0 0 1 9.25557,-26.60005 36.084908,36.438679 0 0 1 25.27978,-11.969" />
      <path
         style="opacity:1;fill:none;fill-opacity:1;stroke:#343434;stroke-width:40;stroke-linecap:butt;stroke-linejoin:bevel;stroke-miterlimit:4;stroke-dasharray:none;stroke-opacity:1"
         id="path4264-1"
         d="m -445.1534,204.29204 a 36.084908,36.438679 0 0 1 9.25558,-26.60005 36.084908,36.438679 0 0 1 25.27977,-11.969"
         transform="matrix(0,-1,1,0,0,0)" />
      <rect
         style="opacity:1;fill:#343434;fill-opacity:1;stroke:#343434;stroke-width:1.31279743;stroke-linecap:butt;stroke-linejoin:bevel;stroke-miterlimit:4;stroke-dasharray:none;stroke-opacity:1"
         id="rect4237-1"
         width="112.12019"
         height="38.687202"
         x="200.87773"
         y="425.95148" />
      <rect
         style="opacity:1;fill:#343434;fill-opacity:1;stroke:#343434;stroke-width:1.27162325;stroke-linecap:butt;stroke-linejoin:bevel;stroke-miterlimit:4;stroke-dasharray:none;stroke-opacity:1"
         id="rect4237-1-7"
         width="105.08563"
         height="38.728378"
         x="182.46089"
         y="347.39325" />
    </g>
    <text
       transform="scale(1.0589457,0.94433548)"
       id="text4333"
       y="987.32098"
       x="104.49947"
       style="font-style:normal;font-variant:normal;font-weight:bold;font-stretch:normal;font-size:97.89375305px;line-height:125%;font-family:sans-serif;-inkscape-font-specification:'sans-serif, Bold';text-align:start;letter-spacing:0px;word-spacing:0px;writing-mode:lr-tb;text-anchor:start;fill:#2e5b96;fill-opacity:1;stroke:none;stroke-width:1px;stroke-linecap:butt;stroke-linejoin:miter;stroke-opacity:1"
       xml:space="preserve"><tspan
         y="987.32098"
         x="104.49947"
         id="tspan4335">Win</tspan></text>
  </g>
</svg>
