<?xml version="1.0" encoding="UTF-8" standalone="no"?>
<svg
   xmlns:dc="http://purl.org/dc/elements/1.1/"
   xmlns:cc="http://creativecommons.org/ns#"
   xmlns:rdf="http://www.w3.org/1999/02/22-rdf-syntax-ns#"
   xmlns:svg="http://www.w3.org/2000/svg"
   xmlns="http://www.w3.org/2000/svg"
   version="1.1"
   id="svg2"
   viewBox="0 0 1052.3622 526.1811"
   height="148.5mm"
   width="297mm">
  <defs
     id="defs4" />
  <metadata
     id="metadata7">
    <rdf:RDF>
      <cc:Work
         rdf:about="">
        <dc:format>image/svg+xml</dc:format>
        <dc:type
           rdf:resource="http://purl.org/dc/dcmitype/StillImage" />
        <dc:title></dc:title>
      </cc:Work>
    </rdf:RDF>
  </metadata>
  <g
     transform="translate(0,-526.18111)"
     id="layer1">
    <g
       id="text5037"
       style="font-style:normal;font-weight:normal;font-size:125.87263489px;line-height:125%;font-family:sans-serif;letter-spacing:0px;word-spacing:0px;fill:#000000;fill-opacity:1;stroke:none;stroke-width:1px;stroke-linecap:butt;stroke-linejoin:miter;stroke-opacity:1"
       transform="scale(1.2096256,0.82670207)">
      <path
         id="path4146"
         style=""
         d="m 583.99623,1110.2037 -12.16933,0 0,-44.8052 -45.66571,0 0,44.8052 -12.16933,0 0,-91.5158 12.16933,0 0,35.8934 45.66571,0 0,-35.8934 12.16933,0 0,91.5158 z" />
    </g>
    <g
       id="text5037-5"
       style="font-style:normal;font-weight:normal;font-size:111.14676666px;line-height:125%;font-family:sans-serif;letter-spacing:0px;word-spacing:0px;fill:#000000;fill-opacity:1;stroke:none;stroke-width:1px;stroke-linecap:butt;stroke-linejoin:miter;stroke-opacity:1"
       transform="scale(1.1157201,0.89628215)">
      <path
         id="path4152"
         style=""
         d="m 745.4856,950.84256 q 4.93865,5.42709 7.54366,13.29637 2.65927,7.86927 2.65927,17.85512 0,9.98584 -2.71355,17.90939 -2.65927,7.86926 -7.48938,13.13356 -4.99292,5.4813 -11.83105,8.2492 -6.78386,2.7678 -15.52147,2.7678 -8.52053,0 -15.52147,-2.8221 -6.94668,-2.8221 -11.83106,-8.1949 -4.88438,-5.3728 -7.54365,-13.18783 -2.605,-7.81501 -2.605,-17.85512 0,-9.8773 2.605,-17.69231 2.605,-7.86928 7.59792,-13.45918 4.77584,-5.31855 11.83106,-8.14063 7.10948,-2.82209 15.4672,-2.82209 8.68334,0 15.57574,2.87636 6.94667,2.82208 11.77678,8.08636 z m -0.97687,31.15149 q 0,-15.73856 -7.05522,-24.25909 -7.05521,-8.5748 -19.26616,-8.5748 -12.31949,0 -19.37471,8.5748 -7.00094,8.52053 -7.00094,24.25909 0,15.90136 7.16376,24.36765 7.16375,8.412 19.21189,8.412 12.04813,0 19.15762,-8.412 7.16376,-8.46629 7.16376,-24.36765 z" />
    </g>
    <g
       id="text5037-6"
       style="font-style:normal;font-weight:normal;font-size:104.63750458px;line-height:125%;font-family:sans-serif;letter-spacing:0px;word-spacing:0px;fill:#000000;fill-opacity:1;stroke:none;stroke-width:1px;stroke-linecap:butt;stroke-linejoin:miter;stroke-opacity:1"
       transform="scale(1.1380504,0.87869571)">
      <path
         id="path4155"
         style=""
         d="m 334.95511,1148.1251 -10.11633,0 0,-37.2464 -37.96175,0 0,37.2464 -10.11632,0 0,-76.0768 10.11632,0 0,29.8381 37.96175,0 0,-29.8381 10.11633,0 0,76.0768 z" />
      <path
         id="path4157"
         style=""
         d="m 405.56498,1148.1251 -50.12177,0 0,-76.0768 50.12177,0 0,8.9923 -40.00545,0 0,20.8458 40.00545,0 0,8.9923 -40.00545,0 0,28.2541 40.00545,0 0,8.9923 z" />
      <path
         id="path4159"
         style=""
         d="m 481.64175,1148.1251 -10.78052,0 -7.45951,-21.2034 -32.90359,0 -7.45951,21.2034 -10.2696,0 27.69215,-76.0768 13.48843,0 27.69215,76.0768 z m -21.35668,-29.8891 -13.33515,-37.3486 -13.38624,37.3486 26.72139,0 z" />
      <path
         id="path4161"
         style=""
         d="m 541.31783,1081.0406 -27.18123,0 0,67.0845 -10.11632,0 0,-67.0845 -27.18123,0 0,-8.9923 64.47878,0 0,8.9923 z" />
      <path
         id="path4163"
         style=""
         d="m 578.4621,1148.1251 -30.04241,0 0,-7.766 9.96304,0 0,-60.5447 -9.96304,0 0,-7.7661 30.04241,0 0,7.7661 -9.96304,0 0,60.5447 9.96304,0 0,7.766 z" />
      <path
         id="path4165"
         style=""
         d="m 653.82359,1148.1251 -12.51767,0 -36.07133,-68.0552 0,68.0552 -9.45212,0 0,-76.0768 15.68541,0 32.90359,62.1286 0,-62.1286 9.45212,0 0,76.0768 z" />
      <path
         id="path4167"
         style=""
         d="m 737.51317,1142.5049 q -6.23329,2.8612 -13.64171,5.0071 -7.35732,2.0948 -14.25481,2.0948 -8.8901,0 -16.29852,-2.4524 -7.40842,-2.4525 -12.61986,-7.3574 -5.26253,-4.9559 -8.12371,-12.3644 -2.86118,-7.4595 -2.86118,-17.4225 0,-18.24 10.62725,-28.7651 10.67833,-10.5762 29.27602,-10.5762 6.48875,0 13.23296,1.5839 6.79531,1.5328 14.61247,5.2625 l 0,12.0068 -0.91967,0 q -1.58387,-1.2262 -4.59833,-3.2188 -3.01446,-1.9926 -5.92673,-3.3211 -3.52539,-1.5838 -8.02153,-2.6057 -4.44505,-1.0729 -10.11632,-1.0729 -12.77313,0 -20.23264,8.2259 -7.40842,8.1748 -7.40842,22.1741 0,14.7658 7.76607,22.9917 7.76606,8.1748 21.1523,8.1748 4.90489,0 9.75868,-0.9708 4.90488,-0.9707 8.58354,-2.5035 l 0,-18.6488 -20.38592,0 0,-8.8901 30.40006,0 0,32.6481 z" />
    </g>
    <g
       id="text5037-4"
       style="font-style:normal;font-weight:normal;font-size:72.79698944px;line-height:125%;font-family:sans-serif;letter-spacing:0px;word-spacing:0px;fill:#aa0000;fill-opacity:1;stroke:none;stroke-width:1px;stroke-linecap:butt;stroke-linejoin:miter;stroke-opacity:1"
       transform="scale(1.0409171,0.96069131)">
      <path
         id="path4149"
         style=""
         d="m 724.32498,971.36395 -35.82977,0 0,-7.42899 q 3.73227,-3.19908 7.46454,-6.39817 3.76781,-3.19909 7.00244,-6.36263 6.82472,-6.61144 9.34844,-10.48589 2.52373,-3.91 2.52373,-8.42426 0,-4.12327 -2.737,-6.43372 -2.70145,-2.346 -7.57117,-2.346 -3.23463,0 -7.00245,1.13746 -3.76781,1.13745 -7.3579,3.48344 l -0.35545,0 0,-7.46453 q 2.52372,-1.24409 6.71808,-2.27491 4.2299,-1.03081 8.17544,-1.03081 8.1399,0 12.76081,3.94554 4.6209,3.90999 4.6209,10.62807 0,3.02136 -0.782,5.65172 -0.74645,2.59482 -2.23936,4.94081 -1.38627,2.20382 -3.27018,4.33654 -1.84836,2.13273 -4.51427,4.72754 -3.80335,3.73227 -7.85553,7.25126 -4.05218,3.48345 -7.57117,6.46927 l 28.47187,0 0,6.07826 z" />
    </g>
    <g
       transform="matrix(0.76191686,0,0,0.68844655,674.27333,558.04949)"
       id="g5032">
      <path
         style="fill:#aa0000;fill-opacity:1;fill-rule:evenodd;stroke:#000000;stroke-width:1px;stroke-linecap:butt;stroke-linejoin:miter;stroke-opacity:1"
         d="m -88.949237,262.3622 0,260 -380.000003,0 0,-20 340,0 c 28.94924,0 28.94924,-60 0,-60 l -290,0 c -11.05076,0 -11.05076,-20 0,-20 l 290,0 c 28.94924,0 28.94924,-60 0,-60 l -290,0 c -11.05076,0 -11.05076,-20 0,-20 l 289.09137,0 c 29.85787,0 29.85787,-60 0,-58.98985 l -289.09137,-1.01015 c -11.05076,0 -11.05076,-20 0,-20 z"
         id="path5024" />
      <path
         style="fill:#a40000;fill-opacity:1;fill-rule:evenodd;stroke:#000000;stroke-width:1px;stroke-linecap:butt;stroke-linejoin:miter;stroke-opacity:1"
         d="m -468,482.3622 330,0 c 8,0 8,-20 0,-20 l -290,0 c -32,0 -32,-60 0,-60 l 290,0 c 8,0 8,-20 0,-20 l -293.03046,1.01015 C -460,382.3622 -460,322.3622 -428,322.3622 l 290,0 c 8,0 8,-20 0,-20 l -291.11168,1.01015 C -460,302.3622 -460,242.3622 -430.12183,243.37235 L -98,242.3622 -278,62.362205 -468,252.3622 Z"
         id="path5026" />
      <path
         style="fill:#a40000;fill-opacity:1;fill-rule:evenodd;stroke:#000000;stroke-width:1px;stroke-linecap:butt;stroke-linejoin:miter;stroke-opacity:1"
         d="m -528,252.3622 60,-60 0,-169.999995 60,0 0,109.999995 L -278,2.3622047 -28,252.3622 l -28.888322,0 L -278,32.362205 -498,252.3622 Z"
         id="path5030" />
    </g>
  </g>
</svg>
