<?xml version="1.0" encoding="UTF-8" standalone="no"?>
<svg
   xmlns:dc="http://purl.org/dc/elements/1.1/"
   xmlns:cc="http://creativecommons.org/ns#"
   xmlns:rdf="http://www.w3.org/1999/02/22-rdf-syntax-ns#"
   xmlns:svg="http://www.w3.org/2000/svg"
   xmlns="http://www.w3.org/2000/svg"
   version="1.1"
   id="svg2"
   viewBox="0 0 1052.3622 526.1811"
   height="148.5mm"
   width="297mm">
  <defs
     id="defs4" />
  <metadata
     id="metadata7">
    <rdf:RDF>
      <cc:Work
         rdf:about="">
        <dc:format>image/svg+xml</dc:format>
        <dc:type
           rdf:resource="http://purl.org/dc/dcmitype/StillImage" />
        <dc:title></dc:title>
      </cc:Work>
    </rdf:RDF>
  </metadata>
  <g
     transform="translate(0,-526.18111)"
     id="layer1">
    <g
       style="fill:#9b6105;fill-opacity:1"
       id="g3"
       transform="matrix(9.8115894,0,0,9.5593027,91.276743,560.49954)">
      <g
         style="fill:#9b6105;fill-opacity:1"
         id="g5">
        <path
           style="fill:#9b6105;fill-opacity:1"
           id="path7"
           d="M 6.665,11.674 4.424,13.915 C 4.13,14.21 4.042,14.668 4.2,15.053 c 0.159,0.385 0.535,0.652 0.952,0.652 l 9.457,0 c 0.568,0 1.034,-0.492 1.034,-1.061 l 0,-9.458 C 15.643,4.769 15.389,4.394 15.004,4.234 14.62,4.075 14.176,4.163 13.881,4.457 L 11.639,6.699 5.7,0.76 C 4.732,-0.208 3.163,-0.208 2.195,0.76 L 0.726,2.229 C 0.261,2.694 0,3.325 0,3.981 0,4.638 0.261,5.269 0.726,5.734 l 5.939,5.94 z" />
        <path
           style="fill:#9b6105;fill-opacity:1"
           id="path9"
           d="m 14.61,30.1 -9.458,0 c -0.418,0 -0.793,0.233 -0.952,0.619 -0.158,0.384 -0.07,0.818 0.223,1.113 l 2.242,2.237 -5.94,5.938 C 0.261,40.472 0,41.101 0,41.758 c 0,0.656 0.261,1.286 0.725,1.752 l 1.471,1.469 c 0.968,0.968 2.537,0.968 3.504,0 l 5.939,-5.939 2.241,2.242 c 0.297,0.294 0.741,0.382 1.125,0.223 0.385,-0.159 0.639,-0.534 0.639,-0.95 l 0,-9.458 c 0,-0.57 -0.466,-0.997 -1.034,-0.997 z" />
        <path
           style="fill:#9b6105;fill-opacity:1"
           id="path11"
           d="m 39.074,34.065 2.242,-2.242 c 0.293,-0.295 0.381,-0.721 0.222,-1.104 -0.158,-0.385 -0.533,-0.618 -0.951,-0.618 l -9.457,0 c -0.567,0 -1.033,0.427 -1.033,0.996 l 0,9.458 c 0,0.417 0.253,0.792 0.638,0.952 0.385,0.158 0.83,0.07 1.123,-0.225 l 2.242,-2.242 5.94,5.94 c 0.967,0.968 2.536,0.968 3.504,0 l 1.47,-1.47 c 0.467,-0.466 0.727,-1.096 0.727,-1.752 0,-0.658 -0.26,-1.288 -0.727,-1.752 l -5.94,-5.941 z" />
        <path
           style="fill:#9b6105;fill-opacity:1"
           id="path13"
           d="m 31.13,15.704 9.457,0 c 0.418,0 0.793,-0.267 0.951,-0.652 0.159,-0.385 0.071,-0.835 -0.222,-1.13 L 39.074,11.676 45.012,5.734 C 45.478,5.27 45.74,4.638 45.74,3.981 45.74,3.324 45.478,2.693 45.012,2.229 l -1.47,-1.47 c -0.967,-0.968 -2.537,-0.968 -3.503,0 L 34.1,6.698 31.86,4.456 C 31.565,4.162 31.12,4.074 30.735,4.233 30.35,4.392 30.097,4.768 30.097,5.184 l 0,9.458 c 0,0.569 0.465,1.062 1.033,1.062 z" />
        <circle
           style="fill:#9b6105;fill-opacity:1"
           id="circle15"
           r="7.3600001"
           cy="22.868999"
           cx="22.870001" />
      </g>
    </g>
    <g
       id="g17"
       transform="matrix(11.931671,0,0,9.669888,60.972167,562.5162)" />
    <g
       id="g19"
       transform="matrix(11.931671,0,0,9.669888,60.972167,562.5162)" />
    <g
       id="g21"
       transform="matrix(11.931671,0,0,9.669888,60.972167,562.5162)" />
    <g
       id="g23"
       transform="matrix(11.931671,0,0,9.669888,60.972167,562.5162)" />
    <g
       id="g25"
       transform="matrix(11.931671,0,0,9.669888,60.972167,562.5162)" />
    <g
       id="g27"
       transform="matrix(11.931671,0,0,9.669888,60.972167,562.5162)" />
    <g
       id="g29"
       transform="matrix(11.931671,0,0,9.669888,60.972167,562.5162)" />
    <g
       id="g31"
       transform="matrix(11.931671,0,0,9.669888,60.972167,562.5162)" />
    <g
       id="g33"
       transform="matrix(11.931671,0,0,9.669888,60.972167,562.5162)" />
    <g
       id="g35"
       transform="matrix(11.931671,0,0,9.669888,60.972167,562.5162)" />
    <g
       id="g37"
       transform="matrix(11.931671,0,0,9.669888,60.972167,562.5162)" />
    <g
       id="g39"
       transform="matrix(11.931671,0,0,9.669888,60.972167,562.5162)" />
    <g
       id="g41"
       transform="matrix(11.931671,0,0,9.669888,60.972167,562.5162)" />
    <g
       id="g43"
       transform="matrix(11.931671,0,0,9.669888,60.972167,562.5162)" />
    <g
       id="g45"
       transform="matrix(11.931671,0,0,9.669888,60.972167,562.5162)" />
    <g
       id="text4195"
       style="font-style:normal;font-variant:normal;font-weight:normal;font-stretch:normal;font-size:317.8392334px;line-height:125%;font-family:'Arial Rounded MT Bold';-inkscape-font-specification:'Arial Rounded MT Bold, Normal';text-align:start;letter-spacing:0px;word-spacing:0px;writing-mode:lr-tb;text-anchor:start;fill:#004b6b;fill-opacity:1;stroke:none;stroke-width:1px;stroke-linecap:butt;stroke-linejoin:miter;stroke-opacity:1"
       transform="scale(0.60921713,1.6414509)">
      <path
         id="path4200"
         style=""
         d="m 1061.079,388.53443 0,79.7702 90.4787,-94.35852 q 6.5182,-6.82858 11.0188,-10.08767 4.6559,-3.2591 12.2604,-3.2591 9.9325,0 15.9851,5.89741 6.2078,5.74221 6.2078,14.12274 0,10.08767 -10.3981,20.02015 l -56.0253,53.07667 64.561,92.49618 q 6.8286,9.62208 10.2429,16.91625 3.4143,7.13896 3.4143,13.96754 0,7.60455 -6.0526,13.19157 -5.8974,5.58702 -16.1403,5.58702 -9.6221,0 -15.6747,-4.03507 -6.0526,-4.19026 -10.2428,-11.01884 -4.1903,-6.82858 -7.4494,-12.4156 l -54.4734,-83.80526 -37.7124,36.16042 0,47.02406 q 0,14.27794 -6.5182,21.26171 -6.5182,6.82858 -16.761,6.82858 -5.8974,0 -11.3293,-3.1039 -5.4318,-3.1039 -8.3805,-8.38053 -2.1727,-4.34546 -2.6383,-10.08767 -0.4656,-5.74221 -0.4656,-16.60586 l 0,-169.16248 q 0,-13.96754 6.0526,-20.95132 6.2078,-6.98377 16.7611,-6.98377 10.398,0 16.761,6.98377 6.5182,6.82858 6.5182,20.95132 z" />
      <path
         id="path4202"
         style=""
         d="m 1278.5071,364.47922 60.0605,0 q 23.4344,0 40.1955,4.34545 16.761,4.34546 30.4182,16.29547 35.5396,30.41821 35.5396,92.49619 0,20.48573 -3.5695,37.40198 -3.5695,16.91624 -11.0188,30.5734 -7.4494,13.50196 -19.089,24.21041 -9.1565,8.22533 -20.0201,13.19157 -10.8637,4.96624 -23.4345,6.98377 -12.4156,2.01754 -28.0903,2.01754 l -60.0604,0 q -12.5708,0 -18.9338,-3.72468 -6.363,-3.87988 -8.3805,-10.70845 -1.8623,-6.98378 -1.8623,-18.00262 l 0,-166.83456 q 0,-14.89871 6.6733,-21.57209 6.6734,-6.67338 21.5721,-6.67338 z m 17.8474,36.47081 0,154.41896 34.9189,0 q 11.4844,0 18.0026,-0.62078 6.5182,-0.62078 13.502,-3.1039 6.9838,-2.48312 12.1052,-6.98377 23.124,-19.55456 23.124,-67.3546 0,-33.67731 -10.2428,-50.43836 -10.0877,-16.76105 -24.9864,-21.26171 -14.8987,-4.65584 -36.0052,-4.65584 l -30.4183,0 z" />
      <path
         id="path4204"
         style=""
         d="m 1632.9724,402.50198 -50.2832,0 0,165.2826 q 0,14.27794 -6.363,21.26171 -6.363,6.82858 -16.4506,6.82858 -10.2429,0 -16.7611,-6.98377 -6.363,-6.98378 -6.363,-21.10652 l 0,-165.2826 -50.2832,0 q -11.7948,0 -17.537,-5.12144 -5.7422,-5.27663 -5.7422,-13.81235 0,-8.84611 5.8974,-13.96754 6.0526,-5.12143 17.3818,-5.12143 l 146.5041,0 q 11.95,0 17.6922,5.27662 5.8974,5.27663 5.8974,13.81235 0,8.53572 -5.8974,13.81235 -5.8974,5.12144 -17.6922,5.12144 z" />
    </g>
  </g>
</svg>
