<?xml version="1.0" encoding="UTF-8" standalone="no"?>
<svg
   xmlns:dc="http://purl.org/dc/elements/1.1/"
   xmlns:cc="http://creativecommons.org/ns#"
   xmlns:rdf="http://www.w3.org/1999/02/22-rdf-syntax-ns#"
   xmlns:svg="http://www.w3.org/2000/svg"
   xmlns="http://www.w3.org/2000/svg"
   version="1.1"
   id="svg2"
   viewBox="0 0 1052.3622 526.18111"
   height="148.5mm"
   width="297mm">
  <defs
     id="defs4" />
  <metadata
     id="metadata7">
    <rdf:RDF>
      <cc:Work
         rdf:about="">
        <dc:format>image/svg+xml</dc:format>
        <dc:type
           rdf:resource="http://purl.org/dc/dcmitype/StillImage" />
        <dc:title></dc:title>
      </cc:Work>
    </rdf:RDF>
  </metadata>
  <g
     transform="translate(0,-526.18108)"
     id="layer1">
    <g
       id="text4147"
       style="font-style:normal;font-variant:normal;font-weight:normal;font-stretch:normal;font-size:145.39871216px;line-height:125%;font-family:'Arial Rounded MT Bold';-inkscape-font-specification:'Arial Rounded MT Bold, Normal';text-align:start;letter-spacing:0px;word-spacing:0px;writing-mode:lr-tb;text-anchor:start;fill:#006809;fill-opacity:1;stroke:#006809;stroke-width:0.80777061px;stroke-linecap:round;stroke-linejoin:round;stroke-opacity:1"
       transform="matrix(2.6225367,0,0,2.6937492,117.33533,-1839.6694)">
      <path
         id="path4136"
         style="fill:#006809;fill-opacity:1;stroke:#006809;stroke-width:0.80777061px;stroke-opacity:1"
         d="m 66.311741,996.97822 -16.683934,-66.30977 0,71.84745 q 0,5.9636 -2.697828,8.9454 -2.626832,2.9818 -7.028551,2.9818 -4.259728,0 -6.957556,-2.9108 -2.697827,-2.9818 -2.697827,-9.0164 l 0,-82.35478 q 0,-6.81556 3.549773,-9.15841 3.549773,-2.41385 9.584388,-2.41385 l 6.531583,0 q 5.892623,0 8.519455,1.06493 2.697828,1.06494 3.975746,3.83376 1.277919,2.76882 2.910814,9.01642 l 15.122034,57.00936 15.122035,-57.00936 q 1.632895,-6.2476 2.910814,-9.01642 1.277918,-2.76882 3.904753,-3.83376 2.69782,-1.06493 8.59045,-1.06493 l 6.53158,0 q 6.03462,0 9.58439,2.41385 3.54977,2.34285 3.54977,9.15841 l 0,82.35478 q 0,5.9636 -2.69783,8.9454 -2.62683,2.9818 -7.09954,2.9818 -4.18873,0 -6.88656,-2.9818 -2.69783,-2.9818 -2.69783,-8.9454 l 0,-71.84745 -16.683934,66.30977 q -1.632896,6.46058 -2.697828,9.51338 -0.993936,2.9818 -3.762759,5.4667 -2.768823,2.4848 -7.667511,2.4848 -3.691764,0 -6.2476,-1.6329 -2.555837,-1.5619 -3.975746,-4.0467 -1.41991,-2.4849 -2.271855,-5.4667 -0.78095,-3.0528 -1.632896,-6.31858 z" />
      <path
         id="path4138"
         style="fill:#006809;fill-opacity:1;stroke:#006809;stroke-width:0.80777061px;stroke-opacity:1"
         d="m 231.51819,981.43021 q 0,9.4424 -4.89869,16.96791 -4.82769,7.52548 -14.19909,11.78528 -9.3714,4.2597 -22.22158,4.2597 -15.40602,0 -25.41638,-5.8216 -7.09955,-4.1888 -11.57226,-11.14632 -4.40172,-7.02855 -4.40172,-13.63113 0,-3.83375 2.62683,-6.53158 2.69783,-2.76882 6.81557,-2.76882 3.33678,0 5.60864,2.12986 2.34285,2.12987 3.97575,6.3186 1.98787,4.96968 4.25972,8.30647 2.34285,3.33678 6.53159,5.53764 4.18873,2.12987 11.00429,2.12987 9.3714,0 15.19303,-4.33073 5.89263,-4.40171 5.89263,-10.9333 0,-5.18267 -3.1948,-8.37746 -3.1238,-3.26579 -8.16448,-4.96968 -4.96968,-1.7039 -13.34715,-3.62077 -11.21728,-2.62684 -18.81379,-6.10561 -7.52552,-3.54978 -11.99824,-9.58439 -4.40172,-6.10561 -4.40172,-15.12203 0,-8.59046 4.6857,-15.26403 4.68571,-6.67357 13.56014,-10.22335 8.87443,-3.62077 20.87267,-3.62077 9.58438,0 16.54194,2.41385 7.02855,2.34285 11.64325,6.3186 4.61471,3.90475 6.74457,8.23547 2.12987,4.33072 2.12987,8.44846 0,3.76276 -2.69783,6.81557 -2.62683,2.98181 -6.60258,2.98181 -3.62077,0 -5.53764,-1.77489 -1.84589,-1.84588 -4.04675,-5.96362 -2.83981,-5.89262 -6.81556,-9.15842 -3.97575,-3.33678 -12.77918,-3.33678 -8.16448,0 -13.20516,3.62077 -4.96968,3.54977 -4.96968,8.59045 0,3.1238 1.70389,5.39565 1.70389,2.27186 4.6857,3.90475 2.98181,1.6329 6.03461,2.55584 3.05281,0.92294 10.08136,2.69783 8.80344,2.05887 15.90298,4.54371 7.17055,2.48484 12.14023,6.03461 5.04068,3.54978 7.8095,9.01643 2.83982,5.39565 2.83982,13.27615 z" />
      <path
         id="path4140"
         style="fill:#006809;fill-opacity:1;stroke:#006809;stroke-width:0.80777061px;stroke-opacity:1"
         d="m 267.72587,947.21039 0,65.74181 q 0,7.0285 -0.49696,11.4303 -0.42598,4.4727 -1.27792,6.4606 -4.82769,12.3532 -20.51769,12.3532 -8.80344,0 -13.34715,-2.4139 -4.54371,-2.4138 -4.54371,-7.0285 0,-3.4078 2.05887,-5.6087 2.05887,-2.1298 5.39566,-2.1298 0.42597,0 1.4199,0.071 0.92295,0.1419 2.76883,0.2839 1.91688,0.142 2.62683,0.142 3.90475,0 5.18267,-3.0528 1.34891,-3.0528 1.34891,-10.9333 l 0,-65.31581 q 0,-5.75063 2.69783,-8.66144 2.69783,-2.91082 7.09955,-2.91082 4.25972,0 6.88656,2.91082 2.69782,2.83982 2.69782,8.66144 z m -9.58438,-20.58868 q -4.04674,0 -6.95756,-2.48484 -2.83982,-2.48484 -2.83982,-7.02855 0,-4.11774 2.91082,-6.74457 2.98181,-2.69783 6.88656,-2.69783 3.76276,0 6.67357,2.41385 2.91081,2.41384 2.91081,7.02855 0,4.47271 -2.83981,7.02855 -2.83982,2.48484 -6.74457,2.48484 z" />
    </g>
  </g>
</svg>
