<?xml version="1.0" encoding="UTF-8" standalone="no"?>
<svg
   xmlns:dc="http://purl.org/dc/elements/1.1/"
   xmlns:cc="http://creativecommons.org/ns#"
   xmlns:rdf="http://www.w3.org/1999/02/22-rdf-syntax-ns#"
   xmlns:svg="http://www.w3.org/2000/svg"
   xmlns="http://www.w3.org/2000/svg"
   version="1.1"
   id="svg2"
   viewBox="0 0 1052.3622 526.18111"
   height="148.5mm"
   width="297mm">
  <defs
     id="defs4" />
  <metadata
     id="metadata7">
    <rdf:RDF>
      <cc:Work
         rdf:about="">
        <dc:format>image/svg+xml</dc:format>
        <dc:type
           rdf:resource="http://purl.org/dc/dcmitype/StillImage" />
        <dc:title></dc:title>
      </cc:Work>
    </rdf:RDF>
  </metadata>
  <g
     transform="translate(0,-526.18108)"
     id="layer1">
    <g
       id="text4147"
       style="font-style:italic;font-variant:normal;font-weight:bold;font-stretch:normal;font-size:97.37895966px;line-height:125%;font-family:Arial;-inkscape-font-specification:'Arial, Bold Italic';text-align:start;letter-spacing:0px;word-spacing:0px;writing-mode:lr-tb;text-anchor:start;fill:#059d7e;fill-opacity:1;stroke:#059d7e;stroke-width:0.67854226px;stroke-linecap:round;stroke-linejoin:round;stroke-opacity:1"
       transform="matrix(2.9862275,0,0,2.5998709,158.01902,-2279.8447)">
      <path
         id="path4138"
         style="fill:#059d7e;fill-opacity:1;stroke:#059d7e;stroke-width:0.67854226px;stroke-opacity:1"
         d="m 79.009261,1170.7156 -13.598819,0 -2.520061,-58.2467 -11.078759,58.2467 -12.933143,0 14.549786,-69.7059 20.445778,0 2.139674,48.8322 23.77416,-48.8322 20.683523,0 -14.59734,69.7059 -13.075786,0 13.741466,-57.8188 -27.530479,57.8188 z" />
      <path
         id="path4140"
         style="fill:#059d7e;fill-opacity:1;stroke:#059d7e;stroke-width:0.67854226px;stroke-opacity:1"
         d="m 122.32578,1148.1301 13.64637,-0.7132 q 0.28529,6.5141 2.23477,8.7964 3.13819,3.7088 11.60179,3.7088 7.03715,0 10.17534,-2.5201 3.13819,-2.52 3.13819,-6.0861 0,-3.0907 -2.56761,-5.2304 -1.80683,-1.569 -9.9376,-5.0876 -8.08321,-3.5186 -11.83953,-5.8485 -3.70877,-2.3774 -5.84844,-6.1337 -2.13968,-3.7563 -2.13968,-8.7964 0,-8.7965 6.37148,-14.5974 6.37147,-5.8009 18.44875,-5.8009 12.26746,0 18.97178,5.7534 6.75186,5.7533 7.41753,15.3105 l -13.74146,0.6182 q -0.52303,-4.9926 -3.61367,-7.6553 -3.09064,-2.6627 -9.12928,-2.6627 -5.94354,0 -8.51115,2.0921 -2.52006,2.0921 -2.52006,5.2779 0,2.9955 2.32987,4.945 2.32986,1.997 10.31798,5.4681 12.02973,5.1827 15.31056,8.416 4.89748,4.7548 4.89748,12.2199 0,9.2244 -7.32244,15.7861 -7.2749,6.5141 -20.30314,6.5141 -8.98663,0 -15.59584,-2.9956 -6.56167,-3.0431 -9.27193,-8.416 -2.71025,-5.373 -2.52006,-12.3626 z" />
      <path
         id="path4142"
         style="fill:#059d7e;fill-opacity:1;stroke:#059d7e;stroke-width:0.67854226px;stroke-opacity:1"
         d="m 199.73445,1101.0097 13.69392,0 -2.56761,12.3626 -13.69392,0 2.56761,-12.3626 z m -3.99406,19.2096 13.69392,0 -8.98664,42.7459 q -3.80386,18.3061 -6.51412,22.2051 -4.08915,6.0386 -13.12333,6.0386 -5.6107,0 -10.27044,-1.5215 l 2.13968,-11.269 q 3.28083,0.8083 5.5156,0.8083 2.7578,0 4.42199,-2.1396 1.6642,-2.1397 4.37445,-15.0253 l 8.74889,-41.8425 z" />
    </g>
    <g
       id="text4147-4"
       style="font-style:italic;font-variant:normal;font-weight:bold;font-stretch:normal;font-size:48.06463242px;line-height:125%;font-family:Arial;-inkscape-font-specification:'Arial, Bold Italic';text-align:start;letter-spacing:0px;word-spacing:0px;writing-mode:lr-tb;text-anchor:start;fill:#059d7e;fill-opacity:1;stroke:#059d7e;stroke-width:0.66983426px;stroke-linecap:round;stroke-linejoin:round;stroke-opacity:1"
       transform="matrix(3.1850772,0,0,2.4375564,158.01902,-2279.8447)">
      <path
         id="path4145"
         style="fill:#059d7e;fill-opacity:1;stroke:#059d7e;stroke-width:0.66983426px;stroke-opacity:1"
         d="m 43.106741,1298.8067 6.336646,0 -0.633665,3.0275 q 3.708112,-3.6142 7.791728,-3.6142 2.816287,0 4.341776,1.1734 1.525489,1.1735 1.947932,3.2388 1.290798,-1.8776 3.708111,-3.1449 2.417313,-1.2673 5.022378,-1.2673 2.980571,0 4.646874,1.5959 1.666303,1.5959 1.666303,4.2244 0,1.2908 -0.657133,4.4591 l -3.191792,15.2314 -6.73562,0 3.191792,-15.2314 q 0.586726,-2.8632 0.586726,-3.2387 0,-1.0327 -0.633664,-1.6194 -0.610196,-0.6102 -1.854056,-0.6102 -2.511189,0 -4.48259,2.652 -1.431613,1.901 -2.440782,6.7356 l -2.370375,11.3121 -6.73562,0 3.144854,-15.0671 q 0.539788,-2.6051 0.539788,-3.3795 0,-0.9857 -0.680603,-1.6194 -0.657133,-0.6337 -1.830586,-0.6337 -1.103046,0 -2.276499,0.6572 -1.173453,0.6571 -2.065277,1.8071 -0.868355,1.15 -1.50202,2.9571 -0.281629,0.8449 -0.915293,3.8254 l -2.393844,11.4529 -6.73562,0 5.210131,-24.9241 z" />
      <path
         id="path4147"
         style="fill:#059d7e;fill-opacity:1;stroke:#059d7e;stroke-width:0.66983426px;stroke-opacity:1"
         d="m 81.80722,1313.381 q 0,-6.9234 3.895864,-11.0305 3.919332,-4.1305 10.279447,-4.1305 5.515229,0 8.613149,3.0509 3.09791,3.0276 3.09791,8.1673 0,6.055 -3.87239,10.4672 -3.872398,4.4122 -10.373327,4.4122 -3.520359,0 -6.24277,-1.4082 -2.72241,-1.4081 -4.060147,-3.9897 -1.337736,-2.5816 -1.337736,-5.5387 z m 19.19769,-4.8112 q 0,-2.3938 -1.408144,-3.8254 -1.384674,-1.4551 -3.590766,-1.4551 -2.182622,0 -3.872394,1.3612 -1.689772,1.3377 -2.628535,3.9193 -0.938762,2.5582 -0.938762,4.7173 0,2.6755 1.455081,4.2479 1.455082,1.5724 3.661174,1.5724 2.769349,0 4.646873,-2.3703 2.675473,-3.3561 2.675473,-8.1673 z" />
      <path
         id="path4149"
         style="fill:#059d7e;fill-opacity:1;stroke:#059d7e;stroke-width:0.66983426px;stroke-opacity:1"
         d="m 110.01703,1323.7308 7.18153,-34.4056 6.75909,0 -2.41732,11.4998 q 1.85406,-1.4081 3.44996,-1.9948 1.61936,-0.6102 3.52035,-0.6102 3.94281,0 6.31318,2.652 2.37038,2.6285 2.37038,7.6744 0,3.403 -1.12652,6.6182 -1.10304,3.1918 -2.98057,5.2102 -1.85406,1.9948 -3.91933,2.9805 -2.04181,0.9623 -4.29484,0.9623 -5.35095,0 -7.86213,-4.6939 l -0.86836,4.1071 -6.12542,0 z m 9.08252,-10.1621 q 0,2.5112 1.40815,4.0836 1.43161,1.5725 3.35607,1.5725 1.68977,0 3.21526,-1.2204 1.54896,-1.2204 2.55813,-3.8959 1.03264,-2.6755 1.03264,-5.3979 0,-2.652 -1.38468,-4.154 -1.3612,-1.5255 -3.30913,-1.5255 -2.53466,0 -4.36525,2.3469 -2.51119,3.2153 -2.51119,8.1907 z" />
      <path
         id="path4151"
         style="fill:#059d7e;fill-opacity:1;stroke:#059d7e;stroke-width:0.66983426px;stroke-opacity:1"
         d="m 146.76957,1289.3252 6.73562,0 -1.26733,6.102 -6.73562,0 1.26733,-6.102 z m -1.9714,9.4815 6.73562,0 -5.21013,24.9241 -6.73562,0 5.21013,-24.9241 z" />
      <path
         id="path4153"
         style="fill:#059d7e;fill-opacity:1;stroke:#059d7e;stroke-width:0.66983426px;stroke-opacity:1"
         d="m 152.87153,1323.7308 7.205,-34.4056 6.71215,0 -7.18153,34.4056 -6.73562,0 z" />
      <path
         id="path4155"
         style="fill:#059d7e;fill-opacity:1;stroke:#059d7e;stroke-width:0.66983426px;stroke-opacity:1"
         d="m 190.51589,1313.3575 -16.89772,0 q -0.0235,0.399 -0.0235,0.6102 0,2.4877 1.40814,4.0132 1.43162,1.5255 3.47342,1.5255 3.35608,0 5.2336,-3.4734 l 6.03155,1.0092 q -1.76018,3.6377 -4.71728,5.4682 -2.93363,1.8072 -6.5948,1.8072 -5.02238,0 -8.16724,-3.1684 -3.14485,-3.1918 -3.14485,-8.4254 0,-5.1162 2.83976,-9.1059 3.87239,-5.3979 11.05392,-5.3979 4.57647,0 7.27541,2.8397 2.69894,2.8163 2.69894,7.9091 0,2.4408 -0.46938,4.3887 z m -5.67951,-4.1071 q 0.0235,-0.4459 0.0235,-0.6806 0,-2.7693 -1.24386,-4.154 -1.24386,-1.3847 -3.33261,-1.3847 -2.08875,0 -3.75505,1.5725 -1.64283,1.5724 -2.22956,4.6468 l 10.53761,0 z" />
    </g>
  </g>
</svg>
