<?xml version="1.0" encoding="UTF-8" standalone="no"?>
<svg
   xmlns:dc="http://purl.org/dc/elements/1.1/"
   xmlns:cc="http://creativecommons.org/ns#"
   xmlns:rdf="http://www.w3.org/1999/02/22-rdf-syntax-ns#"
   xmlns:svg="http://www.w3.org/2000/svg"
   xmlns="http://www.w3.org/2000/svg"
   version="1.1"
   id="svg2"
   viewBox="0 0 1052.3622 526.1811"
   height="148.5mm"
   width="297mm">
  <defs
     id="defs4" />
  <metadata
     id="metadata7">
    <rdf:RDF>
      <cc:Work
         rdf:about="">
        <dc:format>image/svg+xml</dc:format>
        <dc:type
           rdf:resource="http://purl.org/dc/dcmitype/StillImage" />
        <dc:title></dc:title>
      </cc:Work>
    </rdf:RDF>
  </metadata>
  <g
     transform="translate(0,-526.18111)"
     id="layer1">
    <circle
       r="231.95436"
       cy="790.73273"
       cx="540.43164"
       id="path3336"
       style="fill:#00356c;fill-opacity:1;fill-rule:evenodd;stroke:#00356c;stroke-width:16.09127998px;stroke-linecap:butt;stroke-linejoin:miter;stroke-opacity:1" />
    <g
       id="text4182"
       style="font-style:normal;font-variant:normal;font-weight:bold;font-stretch:normal;font-size:42.82745361px;line-height:125%;font-family:Calibri;-inkscape-font-specification:'Calibri, Bold';text-align:start;letter-spacing:0px;word-spacing:0px;writing-mode:lr-tb;text-anchor:start;fill:#ffffff;fill-opacity:1;stroke:none;stroke-width:1px;stroke-linecap:butt;stroke-linejoin:miter;stroke-opacity:1"
       transform="matrix(5.3848714,0,0,8.6435778,260.92957,-6224.0423)">
      <path
         id="path4141"
         d="m 41.068096,800.82398 q 0,0.60645 -0.06274,1.04559 -0.04182,0.41824 -0.146383,0.69009 -0.104559,0.25095 -0.271854,0.37642 -0.146383,0.12547 -0.334589,0.12547 l -6.775437,0 0,21.81105 q 0,0.20912 -0.146383,0.37641 -0.125471,0.1673 -0.439149,0.27186 -0.313677,0.10456 -0.857385,0.16729 -0.522796,0.0627 -1.317446,0.0627 -0.79465,0 -1.338358,-0.0627 -0.522796,-0.0627 -0.836474,-0.16729 -0.313678,-0.10456 -0.460061,-0.27186 -0.125471,-0.16729 -0.125471,-0.37641 l 0,-21.81105 -6.775437,0 q -0.209118,0 -0.355501,-0.12547 -0.146383,-0.12547 -0.250942,-0.37642 -0.104559,-0.27185 -0.167295,-0.69009 -0.04182,-0.43914 -0.04182,-1.04559 0,-0.62735 0.04182,-1.0665 0.06274,-0.43915 0.167295,-0.69009 0.104559,-0.27186 0.250942,-0.37642 0.146383,-0.12547 0.355501,-0.12547 l 19.071601,0 q 0.188206,0 0.334589,0.12547 0.167295,0.10456 0.271854,0.37642 0.10456,0.25094 0.146383,0.69009 0.06274,0.43915 0.06274,1.0665 z" />
    </g>
    <g
       id="text4182-1"
       style="font-style:normal;font-variant:normal;font-weight:bold;font-stretch:normal;font-size:52.02272034px;line-height:125%;font-family:Calibri;-inkscape-font-specification:'Calibri, Bold';text-align:start;letter-spacing:0px;word-spacing:0px;writing-mode:lr-tb;text-anchor:start;fill:#ffffff;fill-opacity:1;stroke:none;stroke-width:1px;stroke-linecap:butt;stroke-linejoin:miter;stroke-opacity:1"
       transform="matrix(4.6624032,0,0,9.9829535,260.92957,-6224.0423)">
      <path
         id="path4144"
         d="m 69.386138,716.20693 q 0,0.73665 -0.07621,1.24468 -0.0508,0.48263 -0.177812,0.78745 -0.127008,0.30482 -0.330222,0.45723 -0.177812,0.12701 -0.406427,0.12701 l -16.511118,0 q -0.838256,0 -1.422496,-0.48263 -0.558838,-0.50803 -0.558838,-1.62571 l 0,-28.65314 q 0,-1.11767 0.558838,-1.60031 0.58424,-0.50803 1.422496,-0.50803 l 16.409511,0 q 0.228615,0 0.406427,0.12701 0.177812,0.12701 0.304821,0.45723 0.127008,0.30482 0.177812,0.81285 0.07621,0.48264 0.07621,1.24469 0,0.71125 -0.07621,1.21928 -0.0508,0.48263 -0.177812,0.78745 -0.127009,0.30482 -0.304821,0.45723 -0.177812,0.12701 -0.406427,0.12701 l -11.735594,0 0,8.02695 9.932072,0 q 0.228615,0 0.406427,0.15241 0.203214,0.12701 0.330222,0.43183 0.127009,0.27941 0.177812,0.78745 0.07621,0.48263 0.07621,1.19388 0,0.73665 -0.07621,1.21928 -0.0508,0.48263 -0.177812,0.78746 -0.127008,0.27941 -0.330222,0.40642 -0.177812,0.12701 -0.406427,0.12701 l -9.932072,0 0,9.27163 11.837201,0 q 0.228615,0 0.406427,0.15241 0.203214,0.12701 0.330222,0.43183 0.127009,0.30482 0.177812,0.81285 0.07621,0.48264 0.07621,1.21929 z" />
    </g>
    <g
       id="text4182-0"
       style="font-style:normal;font-variant:normal;font-weight:bold;font-stretch:normal;font-size:39.50324631px;line-height:125%;font-family:Calibri;-inkscape-font-specification:'Calibri, Bold';text-align:start;letter-spacing:0px;word-spacing:0px;writing-mode:lr-tb;text-anchor:start;fill:#ffffff;fill-opacity:1;stroke:none;stroke-width:1px;stroke-linecap:butt;stroke-linejoin:miter;stroke-opacity:1"
       transform="matrix(4.9310657,0,0.07005562,9.4390457,260.92957,-6224.0423)">
      <path
         id="path4147"
         d="m 78.843526,742.94377 q 0,3.43339 -0.906569,5.88305 -0.88728,2.43038 -2.565396,3.97347 -1.678116,1.5431 -4.089203,2.27607 -2.391798,0.71368 -5.709454,0.71368 l -5.960206,0 q -0.636527,0 -1.080167,-0.36649 -0.424352,-0.38577 -0.424352,-1.23447 l 0,-21.75765 q 0,-0.8487 0.424352,-1.21519 0.44364,-0.38577 1.080167,-0.38577 l 6.403846,0 q 3.336944,0 5.651588,0.79083 2.333932,0.77155 3.915605,2.31465 1.600961,1.52381 2.430375,3.78058 0.829414,2.25678 0.829414,5.22724 z m -5.246525,0.1736 q 0,-1.77456 -0.424351,-3.29837 -0.405063,-1.52381 -1.33092,-2.64255 -0.906569,-1.11875 -2.353221,-1.73598 -1.427363,-0.63653 -3.761295,-0.63653 l -2.565397,0 0,16.97405 2.642552,0 q 2.083179,0 3.510542,-0.54008 1.427363,-0.54009 2.372509,-1.62025 0.964435,-1.09946 1.427364,-2.71971 0.482217,-1.62025 0.482217,-3.78058 z" />
    </g>
  </g>
</svg>
