<?xml version="1.0" encoding="UTF-8" standalone="no"?>
<svg
   xmlns:dc="http://purl.org/dc/elements/1.1/"
   xmlns:cc="http://creativecommons.org/ns#"
   xmlns:rdf="http://www.w3.org/1999/02/22-rdf-syntax-ns#"
   xmlns:svg="http://www.w3.org/2000/svg"
   xmlns="http://www.w3.org/2000/svg"
   xmlns:sodipodi="http://sodipodi.sourceforge.net/DTD/sodipodi-0.dtd"
   xmlns:inkscape="http://www.inkscape.org/namespaces/inkscape"
   viewBox="0 0 1140 360"
   enable-background="new 0 0 1140 360"
   id="svg4336"
   version="1.1"
   inkscape:version="0.91 r13725"
   width="100%"
   height="100%"
   sodipodi:docname="banner1.svg">
  <metadata
     id="metadata4346">
    <rdf:RDF>
      <cc:Work
         rdf:about="">
        <dc:format>image/svg+xml</dc:format>
        <dc:type
           rdf:resource="http://purl.org/dc/dcmitype/StillImage" />
        <dc:title />
      </cc:Work>
    </rdf:RDF>
  </metadata>
  <defs
     id="defs4344" />
  <sodipodi:namedview
     pagecolor="#ffffff"
     bordercolor="#666666"
     borderopacity="1"
     objecttolerance="10"
     gridtolerance="10"
     guidetolerance="10"
     inkscape:pageopacity="0"
     inkscape:pageshadow="2"
     inkscape:window-width="1920"
     inkscape:window-height="1017"
     id="namedview4342"
     showgrid="false"
     inkscape:zoom="1.0245614"
     inkscape:cx="113.21471"
     inkscape:cy="54.895044"
     inkscape:window-x="-8"
     inkscape:window-y="-8"
     inkscape:window-maximized="1"
     inkscape:current-layer="svg4336" />
  <path
     d="M 0,59.9 H 1140 V 360 H 0 V 59.9 z"
     id="path4338"
     style="fill:#335271;fill-opacity:1"
     inkscape:connector-curvature="0" />
  <text
     xml:space="preserve"
     style="font-style:normal;font-weight:normal;font-size:40px;line-height:125%;font-family:sans-serif;letter-spacing:0px;word-spacing:0px;fill:#000000;fill-opacity:1;stroke:none;stroke-width:1px;stroke-linecap:butt;stroke-linejoin:miter;stroke-opacity:1"
     x="55.63356"
     y="156.01027"
     id="text4135"
     sodipodi:linespacing="125%"><tspan
       sodipodi:role="line"
       id="tspan4138"
       x="55.63356"
       y="156.01027" /></text>
  <g
     id="g4214"
     style="fill:#ffffff;fill-opacity:1"
     transform="matrix(1.0942145,0,0,1.0062014,-477.32751,-28.269824)">
    <g
       id="text4453-7-2"
       style="font-style:italic;font-variant:normal;font-weight:bold;font-stretch:condensed;font-size:135.62936401px;line-height:125%;font-family:Arial;-inkscape-font-specification:'Arial, Bold Italic Condensed';text-align:start;letter-spacing:0px;word-spacing:0px;writing-mode:lr-tb;text-anchor:start;fill:#ffffff;fill-opacity:1;stroke:none;stroke-width:1px;stroke-linecap:butt;stroke-linejoin:miter;stroke-opacity:1"
       transform="scale(-0.88613116,-1.1285011)">
      <path
         id="path4187"
         style="fill:#ffffff;fill-opacity:1"
         d="m -721.48789,-176.57329 16.62254,-97.08625 27.28481,0 q 10.92717,0 15.56294,1.39073 7.21856,2.11921 11.12585,7.88081 3.90729,5.7616 3.90729,14.23843 0,8.54306 -3.77484,14.30466 -3.77484,5.7616 -11.32452,8.74174 5.89405,1.98676 9.40399,7.15233 3.57616,5.16557 3.57616,12.053 0,9.40399 -4.30464,17.01989 -4.23842,7.61591 -11.12585,10.9934 -6.8212,3.31126 -19.404,3.31126 l -37.54973,0 z m 26.29143,-57.88089 12.51658,0 q 8.21193,0 11.7881,-1.3245 3.57616,-1.32451 5.62914,-4.56955 2.05299,-3.24504 2.05299,-7.41723 0,-3.37749 -1.52318,-5.69537 -1.52318,-2.38411 -3.84107,-3.17882 -2.31788,-0.7947 -10.00002,-0.7947 l -12.64902,0 -3.97352,22.98017 z m -7.21856,42.25173 15.76162,0 q 9.27154,0 12.71525,-1.32451 3.44372,-1.3245 5.7616,-4.83444 2.31789,-3.57617 2.31789,-8.01326 0,-5.2318 -3.04637,-8.21194 -3.04636,-2.98013 -9.60266,-2.98013 l -19.60268,0 -4.30465,25.36428 z"
         inkscape:connector-curvature="0" />
    </g>
    <g
       id="text4453-7-6-6"
       style="font-style:italic;font-variant:normal;font-weight:bold;font-stretch:condensed;font-size:135.62936401px;line-height:125%;font-family:Arial;-inkscape-font-specification:'Arial, Bold Italic Condensed';text-align:start;letter-spacing:0px;word-spacing:0px;writing-mode:lr-tb;text-anchor:start;fill:#ffffff;fill-opacity:1;stroke:none;stroke-width:1px;stroke-linecap:butt;stroke-linejoin:miter;stroke-opacity:1"
       transform="scale(0.88613116,1.1285011)">
      <path
         id="path4191"
         style="fill:#ffffff;fill-opacity:1"
         d="m 747.84371,256.48114 16.62254,-97.08625 27.28482,0 q 10.92717,0 15.56294,1.39073 7.21855,2.11921 11.12584,7.8808 3.90729,5.7616 3.90729,14.23844 0,8.54306 -3.77484,14.30466 -3.77484,5.7616 -11.32452,8.74174 5.89405,1.98675 9.40399,7.15232 3.57617,5.16558 3.57617,12.053 0,9.40399 -4.30465,17.0199 -4.23841,7.61591 -11.12584,10.9934 -6.82121,3.31126 -19.40401,3.31126 l -37.54973,0 z m 26.29143,-57.88089 12.51658,0 q 8.21194,0 11.7881,-1.32451 3.57616,-1.3245 5.62915,-4.56954 2.05298,-3.24504 2.05298,-7.41723 0,-3.37749 -1.52318,-5.69537 -1.52318,-2.38411 -3.84107,-3.17882 -2.31788,-0.7947 -10.00001,-0.7947 l -12.64903,0 -3.97352,22.98017 z m -7.21855,42.25173 15.76161,0 q 9.27154,0 12.71526,-1.32451 3.44371,-1.32451 5.7616,-4.83445 2.31788,-3.57616 2.31788,-8.01325 0,-5.2318 -3.04636,-8.21194 -3.04636,-2.98014 -9.60267,-2.98014 l -19.60268,0 -4.30464,25.36429 z"
         inkscape:connector-curvature="0" />
    </g>
    <g
       id="text4362-8"
       style="font-style:normal;font-variant:normal;font-weight:normal;font-stretch:normal;font-size:16.56581306px;line-height:125%;font-family:Arial;-inkscape-font-specification:'Arial, Normal';text-align:start;letter-spacing:0px;word-spacing:0px;writing-mode:lr-tb;text-anchor:start;fill:#ffffff;fill-opacity:1;stroke:none;stroke-width:1px;stroke-linecap:butt;stroke-linejoin:miter;stroke-opacity:1"
       transform="matrix(0.94363827,0,-0.35843037,1.0597281,0,0)">
      <path
         id="path4194"
         style="fill:#ffffff;fill-opacity:1"
         d="m 781.37787,291.27847 0,-11.85814 4.44882,0 q 1.35892,0 2.17588,0.36399 0.82506,0.35591 1.28612,1.10816 0.46915,0.74417 0.46915,1.56114 0,0.76034 -0.41253,1.43171 -0.41253,0.67137 -1.24567,1.0839 1.07581,0.31546 1.65011,1.0758 0.58239,0.76035 0.58239,1.79571 0,0.83315 -0.3559,1.55305 -0.34782,0.71181 -0.8655,1.10007 -0.51768,0.38826 -1.3023,0.59048 -0.77652,0.19413 -1.90895,0.19413 l -4.52162,0 z m 1.56922,-6.87546 2.56414,0 q 1.04345,0 1.49643,-0.13751 0.59856,-0.17795 0.89785,-0.59048 0.30737,-0.41252 0.30737,-1.03536 0,-0.59048 -0.2831,-1.03536 -0.28311,-0.45297 -0.80888,-0.61475 -0.52577,-0.16986 -1.8038,-0.16986 l -2.37001,0 0,3.58332 z m 0,5.4761 2.9524,0 q 0.76035,0 1.06772,-0.0566 0.54195,-0.0971 0.90594,-0.32355 0.364,-0.22648 0.59857,-0.65519 0.23458,-0.43679 0.23458,-1.00301 0,-0.66328 -0.33973,-1.1486 -0.33973,-0.49342 -0.94639,-0.68755 -0.59857,-0.20222 -1.731,-0.20222 l -2.74209,0 0,4.07674 z"
         inkscape:connector-curvature="0" />
      <path
         id="path4196"
         style="fill:#ffffff;fill-opacity:1"
         d="m 791.78003,286.98333 q 0,-2.38619 1.32656,-3.53479 1.10816,-0.95448 2.70165,-0.95448 1.77145,0 2.89579,1.16479 1.12434,1.15669 1.12434,3.20315 0,1.6582 -0.50151,2.61268 -0.49341,0.94638 -1.44789,1.47215 -0.94639,0.52577 -2.07073,0.52577 -1.80379,0 -2.92004,-1.15669 -1.10817,-1.1567 -1.10817,-3.33258 z m 1.49643,0 q 0,1.65011 0.7199,2.47517 0.7199,0.81696 1.81188,0.81696 1.0839,0 1.8038,-0.82505 0.7199,-0.82506 0.7199,-2.51561 0,-1.59349 -0.72799,-2.41045 -0.7199,-0.82506 -1.79571,-0.82506 -1.09198,0 -1.81188,0.81697 -0.7199,0.81696 -0.7199,2.46707 z"
         inkscape:connector-curvature="0" />
      <path
         id="path4198"
         style="fill:#ffffff;fill-opacity:1"
         d="m 801.52701,291.27847 0,-8.59028 1.31038,0 0,1.3023 q 0.50151,-0.91404 0.92212,-1.20523 0.42871,-0.2912 0.9383,-0.2912 0.73608,0 1.49642,0.46915 l -0.5015,1.35083 q -0.53386,-0.31547 -1.06772,-0.31547 -0.47724,0 -0.85741,0.2912 -0.38017,0.28311 -0.54195,0.7927 -0.24266,0.77652 -0.24266,1.69864 l 0,4.49736 -1.45598,0 z"
         inkscape:connector-curvature="0" />
      <path
         id="path4200"
         style="fill:#ffffff;fill-opacity:1"
         d="m 807.19724,291.27847 0,-11.85814 4.44883,0 q 1.35891,0 2.17588,0.36399 0.82505,0.35591 1.28611,1.10816 0.46915,0.74417 0.46915,1.56114 0,0.76034 -0.41252,1.43171 -0.41253,0.67137 -1.24568,1.0839 1.07581,0.31546 1.65011,1.0758 0.5824,0.76035 0.5824,1.79571 0,0.83315 -0.35591,1.55305 -0.34782,0.71181 -0.8655,1.10007 -0.51768,0.38826 -1.30229,0.59048 -0.77652,0.19413 -1.90895,0.19413 l -4.52163,0 z m 1.56922,-6.87546 2.56415,0 q 1.04345,0 1.49642,-0.13751 0.59857,-0.17795 0.89785,-0.59048 0.30738,-0.41252 0.30738,-1.03536 0,-0.59048 -0.28311,-1.03536 -0.28311,-0.45297 -0.80888,-0.61475 -0.52577,-0.16986 -1.80379,-0.16986 l -2.37002,0 0,3.58332 z m 0,5.4761 2.95241,0 q 0.76034,0 1.06772,-0.0566 0.54194,-0.0971 0.90594,-0.32355 0.36399,-0.22648 0.59857,-0.65519 0.23457,-0.43679 0.23457,-1.00301 0,-0.66328 -0.33973,-1.1486 -0.33972,-0.49342 -0.94638,-0.68755 -0.59857,-0.20222 -1.731,-0.20222 l -2.7421,0 0,4.07674 z"
         inkscape:connector-curvature="0" />
      <path
         id="path4202"
         style="fill:#ffffff;fill-opacity:1"
         d="m 823.74688,290.21884 q -0.80888,0.68755 -1.56114,0.97066 -0.74416,0.2831 -1.60158,0.2831 -1.41553,0 -2.17588,-0.68754 -0.76034,-0.69564 -0.76034,-1.77144 0,-0.63093 0.28311,-1.14861 0.29119,-0.52577 0.75225,-0.84123 0.46915,-0.31547 1.05154,-0.47724 0.42871,-0.11324 1.29421,-0.2184 1.76335,-0.21031 2.59649,-0.5015 0.008,-0.29929 0.008,-0.38017 0,-0.88977 -0.41252,-1.25376 -0.55813,-0.49342 -1.6582,-0.49342 -1.02728,0 -1.52069,0.36399 -0.48533,0.35591 -0.7199,1.26994 l -1.42363,-0.19413 q 0.19413,-0.91403 0.63901,-1.47216 0.44489,-0.56621 1.28612,-0.86549 0.84123,-0.30738 1.94939,-0.30738 1.10008,0 1.78762,0.25884 0.68755,0.25884 1.0111,0.65519 0.32355,0.38827 0.45297,0.98683 0.0728,0.37209 0.0728,1.34274 l 0,1.94131 q 0,2.03028 0.089,2.57223 0.0971,0.53386 0.37208,1.02727 l -1.52069,0 q -0.22648,-0.45297 -0.29119,-1.05963 z m -0.12134,-3.25168 q -0.7927,0.32355 -2.3781,0.55003 -0.89785,0.12942 -1.26993,0.2912 -0.37209,0.16177 -0.57431,0.47724 -0.20222,0.30737 -0.20222,0.68754 0,0.58239 0.4368,0.97065 0.44488,0.38827 1.2942,0.38827 0.84123,0 1.49643,-0.364 0.65519,-0.37208 0.96256,-1.0111 0.23457,-0.49341 0.23457,-1.45598 l 0,-0.53385 z"
         inkscape:connector-curvature="0" />
      <path
         id="path4204"
         style="fill:#ffffff;fill-opacity:1"
         d="m 834.86894,291.27847 0,-10.45878 -3.90688,0 0,-1.39936 9.39916,0 0,1.39936 -3.92305,0 0,10.45878 -1.56923,0 z"
         inkscape:connector-curvature="0" />
      <path
         id="path4207"
         style="fill:#ffffff;fill-opacity:1"
         d="m 845.89395,288.51211 1.50451,0.18604 q -0.35591,1.31847 -1.31847,2.04646 -0.96257,0.72799 -2.45899,0.72799 -1.88468,0 -2.99285,-1.15669 -1.10007,-1.16479 -1.10007,-3.25978 0,-2.16779 1.11625,-3.36493 1.11625,-1.19714 2.89578,-1.19714 1.72291,0 2.8149,1.17287 1.09198,1.17288 1.09198,3.30023 0,0.12942 -0.008,0.38826 l -6.40631,0 q 0.0809,1.41553 0.80079,2.16779 0.7199,0.75225 1.79571,0.75225 0.80079,0 1.367,-0.42061 0.56622,-0.42062 0.89786,-1.34274 z m -4.78047,-2.35383 4.79664,0 q -0.0971,-1.0839 -0.55003,-1.62585 -0.69564,-0.84123 -1.8038,-0.84123 -1.00301,0 -1.69055,0.67137 -0.67946,0.67137 -0.75226,1.79571 z"
         inkscape:connector-curvature="0" />
      <path
         id="path4210"
         style="fill:#ffffff;fill-opacity:1"
         d="m 854.84013,290.21884 q -0.80888,0.68755 -1.56113,0.97066 -0.74417,0.2831 -1.60158,0.2831 -1.41554,0 -2.17588,-0.68754 -0.76035,-0.69564 -0.76035,-1.77144 0,-0.63093 0.28311,-1.14861 0.2912,-0.52577 0.75226,-0.84123 0.46915,-0.31547 1.05154,-0.47724 0.4287,-0.11324 1.2942,-0.2184 1.76335,-0.21031 2.5965,-0.5015 0.008,-0.29929 0.008,-0.38017 0,-0.88977 -0.41253,-1.25376 -0.55813,-0.49342 -1.6582,-0.49342 -1.02727,0 -1.52069,0.36399 -0.48533,0.35591 -0.7199,1.26994 l -1.42362,-0.19413 q 0.19413,-0.91403 0.63901,-1.47216 0.44488,-0.56621 1.28611,-0.86549 0.84124,-0.30738 1.9494,-0.30738 1.10007,0 1.78762,0.25884 0.68754,0.25884 1.0111,0.65519 0.32355,0.38827 0.45297,0.98683 0.0728,0.37209 0.0728,1.34274 l 0,1.94131 q 0,2.03028 0.089,2.57223 0.0971,0.53386 0.37209,1.02727 l -1.52069,0 q -0.22649,-0.45297 -0.2912,-1.05963 z m -0.12133,-3.25168 q -0.7927,0.32355 -2.3781,0.55003 -0.89786,0.12942 -1.26994,0.2912 -0.37208,0.16177 -0.5743,0.47724 -0.20222,0.30737 -0.20222,0.68754 0,0.58239 0.43679,0.97065 0.44488,0.38827 1.29421,0.38827 0.84123,0 1.49642,-0.364 0.65519,-0.37208 0.96256,-1.0111 0.23458,-0.49341 0.23458,-1.45598 l 0,-0.53385 z"
         inkscape:connector-curvature="0" />
      <path
         id="path4212"
         style="fill:#ffffff;fill-opacity:1"
         d="m 858.45582,291.27847 0,-8.59028 1.30229,0 0,1.20523 q 0.40444,-0.63092 1.07581,-1.0111 0.67136,-0.38826 1.52877,-0.38826 0.95448,0 1.56114,0.39635 0.61474,0.39635 0.8655,1.10816 1.01918,-1.50451 2.65312,-1.50451 1.27802,0 1.96557,0.71181 0.68754,0.70373 0.68754,2.17589 l 0,5.89671 -1.44789,0 0,-5.41139 q 0,-0.87359 -0.1456,-1.25376 -0.1375,-0.38826 -0.50959,-0.62283 -0.37208,-0.23458 -0.87359,-0.23458 -0.90594,0 -1.50451,0.60666 -0.59857,0.59857 -0.59857,1.92513 l 0,4.99077 -1.45598,0 0,-5.58125 q 0,-0.97066 -0.3559,-1.45598 -0.35591,-0.48533 -1.16479,-0.48533 -0.61474,0 -1.14051,0.32355 -0.51769,0.32355 -0.75226,0.94639 -0.23458,0.62283 -0.23458,1.79571 l 0,4.45691 -1.45597,0 z"
         inkscape:connector-curvature="0" />
    </g>
    <g
       id="text4453-7-6-6-1"
       style="font-style:italic;font-variant:normal;font-weight:bold;font-stretch:condensed;font-size:168.41099548px;line-height:125%;font-family:Arial;-inkscape-font-specification:'Arial, Bold Italic Condensed';text-align:start;letter-spacing:0px;word-spacing:0px;writing-mode:lr-tb;text-anchor:start;fill:#ffffff;fill-opacity:1;stroke:none;stroke-width:1px;stroke-linecap:butt;stroke-linejoin:miter;stroke-opacity:1"
       transform="scale(0.87395436,1.1442245)">
      <path
         id="path4184"
         style="fill:#ffffff;fill-opacity:1"
         d="m 747.34897,252.95174 -20.31129,0 17.26871,-100.40519 -29.02788,0 3.45374,-20.14682 77.87364,0 -3.45374,20.14682 -28.53448,0 -17.2687,100.40519 z"
         inkscape:connector-curvature="0" />
    </g>
  </g>
</svg>
