<?xml version="1.0" encoding="UTF-8" standalone="no"?>
<svg
   xmlns:dc="http://purl.org/dc/elements/1.1/"
   xmlns:cc="http://creativecommons.org/ns#"
   xmlns:rdf="http://www.w3.org/1999/02/22-rdf-syntax-ns#"
   xmlns:svg="http://www.w3.org/2000/svg"
   xmlns="http://www.w3.org/2000/svg"
   xmlns:sodipodi="http://sodipodi.sourceforge.net/DTD/sodipodi-0.dtd"
   xmlns:inkscape="http://www.inkscape.org/namespaces/inkscape"
   viewBox="0 0 1140 360"
   enable-background="new 0 0 1140 360"
   id="svg2997"
   version="1.1"
   inkscape:version="0.91 r13725"
   width="100%"
   height="100%"
   sodipodi:docname="banner2.svg">
  <metadata
     id="metadata3007">
    <rdf:RDF>
      <cc:Work
         rdf:about="">
        <dc:format>image/svg+xml</dc:format>
        <dc:type
           rdf:resource="http://purl.org/dc/dcmitype/StillImage" />
        <dc:title />
      </cc:Work>
    </rdf:RDF>
  </metadata>
  <defs
     id="defs3005" />
  <sodipodi:namedview
     pagecolor="#ffffff"
     bordercolor="#666666"
     borderopacity="1"
     objecttolerance="10"
     gridtolerance="10"
     guidetolerance="10"
     inkscape:pageopacity="0"
     inkscape:pageshadow="2"
     inkscape:window-width="1920"
     inkscape:window-height="1017"
     id="namedview3003"
     showgrid="false"
     inkscape:zoom="1.0916736"
     inkscape:cx="51.774863"
     inkscape:cy="28.050363"
     inkscape:window-x="-8"
     inkscape:window-y="-8"
     inkscape:window-maximized="1"
     inkscape:current-layer="svg2997" />
  <path
     d="M 0,60 H 1140 V 360 H 0 V 60 z"
     id="path2999"
     inkscape:connector-curvature="0"
     style="fill:#193b91;fill-opacity:1" />
  <g
     id="g4159"
     transform="matrix(1.0013682,0,0,1.171237,59.848821,-9.4576367)">
    <g
       id="text3426-1"
       style="font-style:normal;font-variant:normal;font-weight:normal;font-stretch:normal;font-size:30px;line-height:100%;font-family:sans-serif;-inkscape-font-specification:'sans-serif, Normal';text-align:start;letter-spacing:0px;word-spacing:0px;writing-mode:lr-tb;text-anchor:start;fill:#ffffff;fill-opacity:1;stroke:none">
      <path
         id="path4145"
         d="m 148.1709,149.63379 -3.09082,0 -2.13867,-6.0791 -9.4336,0 -2.13867,6.0791 -2.94434,0 7.93946,-21.81152 3.86719,0 7.93945,21.81152 z m -6.12305,-8.56934 -3.82324,-10.708 -3.83789,10.708 7.66113,0 z"
         inkscape:connector-curvature="0" />
      <path
         id="path4147"
         d="m 167.21387,143.4082 q 0,1.27442 -0.60059,2.51953 -0.58594,1.24512 -1.65527,2.10938 -1.17188,0.9375 -2.73926,1.46484 -1.55273,0.52735 -3.75,0.52735 -2.3584,0 -4.24805,-0.43946 -1.875,-0.43945 -3.82324,-1.30371 l 0,-3.63281 0.20508,0 q 1.65527,1.37695 3.82324,2.12402 2.16797,0.74707 4.07227,0.74707 2.69531,0 4.18945,-1.01074 1.50879,-1.01074 1.50879,-2.69531 0,-1.4502 -0.71777,-2.13867 -0.70313,-0.68848 -2.15332,-1.06934 -1.09864,-0.29297 -2.3877,-0.4834 -1.27441,-0.19043 -2.70996,-0.4834 -2.90039,-0.61523 -4.30664,-2.09472 -1.3916,-1.49414 -1.3916,-3.88184 0,-2.73926 2.31445,-4.48242 2.31445,-1.75781 5.87402,-1.75781 2.29981,0 4.21875,0.43945 1.91895,0.43945 3.39844,1.08399 l 0,3.42773 -0.20508,0 q -1.24511,-1.05469 -3.28125,-1.74316 -2.02148,-0.70313 -4.14551,-0.70313 -2.3291,0 -3.75,0.9668 -1.40625,0.96679 -1.40625,2.49023 0,1.36231 0.70313,2.13867 0.70312,0.77637 2.47559,1.18653 0.9375,0.20508 2.66601,0.49804 1.72852,0.29297 2.92969,0.60059 2.43164,0.64453 3.66211,1.94824 1.23047,1.30371 1.23047,3.64746 z"
         inkscape:connector-curvature="0" />
      <path
         id="path4149"
         d="m 186.13965,134.41406 q 0,1.4502 -0.5127,2.69531 -0.49804,1.23047 -1.40625,2.13868 -1.12793,1.12793 -2.66601,1.69922 -1.53809,0.55664 -3.88184,0.55664 l -2.90039,0 0,8.12988 -2.90039,0 0,-21.81152 5.91797,0 q 1.96289,0 3.32519,0.33691 1.36231,0.32227 2.417,1.02539 1.24511,0.83496 1.91894,2.08008 0.68848,1.24512 0.68848,3.14941 z m -3.01758,0.0732 q 0,-1.12793 -0.39551,-1.96289 -0.39551,-0.83496 -1.20117,-1.3623 -0.70312,-0.4541 -1.61133,-0.64453 -0.89355,-0.20508 -2.27051,-0.20508 l -2.87109,0 0,8.71582 2.44629,0 q 1.75781,0 2.85645,-0.30762 1.09863,-0.32226 1.7871,-1.01074 0.68848,-0.70312 0.9668,-1.47949 0.29297,-0.77637 0.29297,-1.74317 z"
         inkscape:connector-curvature="0" />
      <path
         id="path4151"
         d="m 189.86035,149.63379 -3.50098,0 0,-4.17481 3.50098,0 0,4.17481 z"
         inkscape:connector-curvature="0" />
      <path
         id="path4153"
         d="m 213.12207,149.63379 -3.58887,0 -10.34179,-19.51172 0,19.51172 -2.70996,0 0,-21.81152 4.49707,0 9.43359,17.8125 0,-17.8125 2.70996,0 0,21.81152 z"
         inkscape:connector-curvature="0" />
      <path
         id="path4155"
         d="m 233.29297,149.63379 -14.37012,0 0,-21.81152 14.37012,0 0,2.57812 -11.46973,0 0,5.97656 11.46973,0 0,2.57813 -11.46973,0 0,8.10058 11.46973,0 0,2.57813 z"
         inkscape:connector-curvature="0" />
      <path
         id="path4157"
         d="m 253.46387,130.40039 -7.79297,0 0,19.2334 -2.90039,0 0,-19.2334 -7.79297,0 0,-2.57812 18.48633,0 0,2.57812 z"
         inkscape:connector-curvature="0" />
    </g>
    <path
       sodipodi:open="true"
       d="m 209.30551,189.85552 a 54.68298,49.182228 0 0 1 -59.76534,13.90018 54.68298,49.182228 0 0 1 -36.0847,-45.04798 54.68298,49.182228 0 0 1 33.58229,-46.58698 54.68298,49.182228 0 0 1 60.452,11.24448"
       sodipodi:end="5.5160873"
       sodipodi:start="0.71798493"
       sodipodi:ry="49.182228"
       sodipodi:rx="54.68298"
       sodipodi:cy="157.50009"
       sodipodi:cx="168.12196"
       sodipodi:type="arc"
       id="path4195"
       style="fill:none;stroke:#ffffff;stroke-width:5.53299475;stroke-linejoin:round;stroke-miterlimit:4;stroke-dasharray:none;stroke-opacity:1"
       transform="translate(-0.67171845,60.550492)" />
    <path
       d="m 184.73237,175.87536 a 25.352758,24.041412 0 0 1 -35.79501,-1.9303 25.352758,24.041412 0 0 1 2.03284,-33.94369 25.352758,24.041412 0 0 1 35.79532,1.92508 25.352758,24.041412 0 0 1 -2.02734,33.94399 l -16.88544,-17.93331 z"
       sodipodi:end="0.84193619"
       sodipodi:start="0.84224323"
       sodipodi:ry="24.041412"
       sodipodi:rx="25.352758"
       sodipodi:cy="157.93713"
       sodipodi:cx="167.85274"
       sodipodi:type="arc"
       id="path4207"
       style="fill:#2fffff;fill-opacity:0.90588235;stroke:none"
       transform="translate(-0.49972463,60.021213)" />
    <g
       id="text3426-1-2"
       style="font-style:normal;font-variant:normal;font-weight:normal;font-stretch:normal;font-size:80px;line-height:100%;font-family:sans-serif;-inkscape-font-specification:'sans-serif, Normal';text-align:start;letter-spacing:0px;word-spacing:0px;writing-mode:lr-tb;text-anchor:start;fill:#ffffff;fill-opacity:1;stroke:none">
      <path
         id="path4140"
         d="m 233.25781,204.4375 -0.39062,0 q -1.64063,-0.39063 -3.20313,-0.54688 -1.52344,-0.19531 -3.63281,-0.19531 -3.39844,0 -6.5625,1.52344 -3.16406,1.48437 -6.09375,3.86719 l 0,30.97656 -7.34375,0 0,-43.63281 7.34375,0 0,6.44531 q 4.375,-3.51563 7.69531,-4.96094 3.35938,-1.48437 6.83594,-1.48437 1.91406,0 2.77344,0.11718 0.85937,0.0781 2.57812,0.35157 l 0,7.53906 z"
         inkscape:connector-curvature="0" />
      <path
         id="path4142"
         d="m 276.77344,219.00781 -32.14844,0 q 0,4.02344 1.21094,7.03125 1.21093,2.96875 3.32031,4.88281 2.03125,1.875 4.80469,2.8125 2.8125,0.9375 6.17187,0.9375 4.45313,0 8.94531,-1.75781 4.53125,-1.79687 6.44532,-3.51562 l 0.39062,0 0,8.00781 q -3.71094,1.5625 -7.57812,2.61719 -3.86719,1.05468 -8.125,1.05468 -10.85938,0 -16.95313,-5.85937 -6.09375,-5.89844 -6.09375,-16.71875 0,-10.70313 5.82031,-16.99219 5.85938,-6.28906 15.39063,-6.28906 8.82812,0 13.59375,5.15625 4.80469,5.15625 4.80469,14.64844 l 0,3.98437 z m -7.14844,-5.625 q -0.0391,-5.78125 -2.92969,-8.94531 -2.85156,-3.16406 -8.71094,-3.16406 -5.89843,0 -9.41406,3.47656 -3.47656,3.47656 -3.94531,8.63281 l 25,0 z"
         inkscape:connector-curvature="0" />
    </g>
  </g>
</svg>
