<?xml version="1.0" encoding="UTF-8" standalone="no"?>
<!-- Created with Inkscape (http://www.inkscape.org/) -->

<svg
   xmlns:dc="http://purl.org/dc/elements/1.1/"
   xmlns:cc="http://creativecommons.org/ns#"
   xmlns:rdf="http://www.w3.org/1999/02/22-rdf-syntax-ns#"
   xmlns:svg="http://www.w3.org/2000/svg"
   xmlns="http://www.w3.org/2000/svg"
   xmlns:sodipodi="http://sodipodi.sourceforge.net/DTD/sodipodi-0.dtd"
   xmlns:inkscape="http://www.inkscape.org/namespaces/inkscape"
   width="200"
   height="200"
   viewBox="0 0 200 200"
   id="svg2"
   version="1.1"
   inkscape:version="0.91 r13725"
   sodipodi:docname="ico2.svg">
  <defs
     id="defs4" />
  <sodipodi:namedview
     id="base"
     pagecolor="#ffffff"
     bordercolor="#666666"
     borderopacity="1.0"
     inkscape:pageopacity="0.0"
     inkscape:pageshadow="2"
     inkscape:zoom="1.4"
     inkscape:cx="-49.346317"
     inkscape:cy="98.701527"
     inkscape:document-units="px"
     inkscape:current-layer="layer1"
     showgrid="false"
     units="px"
     borderlayer="true"
     inkscape:showpageshadow="false"
     showguides="true"
     guidecolor="#0000ff"
     guideopacity="0.49803922"
     inkscape:window-width="1920"
     inkscape:window-height="1017"
     inkscape:window-x="-8"
     inkscape:window-y="-8"
     inkscape:window-maximized="1">
    <inkscape:grid
       type="xygrid"
       id="grid4208" />
  </sodipodi:namedview>
  <metadata
     id="metadata7">
    <rdf:RDF>
      <cc:Work
         rdf:about="">
        <dc:format>image/svg+xml</dc:format>
        <dc:type
           rdf:resource="http://purl.org/dc/dcmitype/StillImage" />
        <dc:title />
      </cc:Work>
    </rdf:RDF>
  </metadata>
  <g
     inkscape:label="Layer 1"
     inkscape:groupmode="layer"
     id="layer1"
     transform="translate(0,-852.36216)">
    <rect
       style="opacity:0.95;fill:#193b91;fill-opacity:1;stroke:none;stroke-width:3;stroke-linecap:butt;stroke-linejoin:bevel;stroke-miterlimit:4;stroke-dasharray:none;stroke-opacity:1"
       id="rect4148"
       width="201.42857"
       height="200.71429"
       x="-0.71429664"
       y="852.36218" />
    <path
       style="fill:none;stroke:#ffffff;stroke-width:10.45198345;stroke-linejoin:round;stroke-miterlimit:4;stroke-dasharray:none;stroke-opacity:1"
       id="path4195-2"
       sodipodi:type="arc"
       sodipodi:cx="79.992203"
       sodipodi:cy="952.84454"
       sodipodi:rx="62.738537"
       sodipodi:ry="71.291466"
       sodipodi:start="0.71798493"
       sodipodi:end="5.5160873"
       d="m 127.24266,999.74495 a 62.738537,71.291466 0 0 1 -68.5696,20.14885 62.738537,71.291466 0 0 1 -41.400479,-65.29876 62.738537,71.291466 0 0 1 38.529422,-67.52956 62.738537,71.291466 0 0 1 69.357417,16.2993"
       sodipodi:open="true" />
    <path
       style="fill:#2fffff;fill-opacity:0.90588235;stroke:none;stroke-width:1.17385089;stroke-opacity:1"
       id="path4207-6"
       sodipodi:type="arc"
       sodipodi:cx="78.813591"
       sodipodi:cy="954.85327"
       sodipodi:rx="31.189667"
       sodipodi:ry="34.953201"
       sodipodi:start="0.84224323"
       sodipodi:end="0.84193619"
       d="m 99.579382,980.9332 a 31.189667,34.953201 0 0 1 -44.036009,-2.80641 31.189667,34.953201 0 0 1 2.500854,-49.34988 31.189667,34.953201 0 0 1 44.036393,2.79884 31.189667,34.953201 0 0 1 -2.494093,49.3503 L 78.813591,954.85327 Z" />
    <g
       style="font-style:normal;font-variant:normal;font-weight:normal;font-stretch:normal;font-size:80px;line-height:100%;font-family:sans-serif;-inkscape-font-specification:'sans-serif, Normal';text-align:start;letter-spacing:0px;word-spacing:0px;writing-mode:lr-tb;text-anchor:start;fill:#ffffff;fill-opacity:1;stroke:#ffffff;stroke-opacity:1"
       id="text3426-1-2-3"
       transform="matrix(1.0470975,0,0,1.4538747,-101.06418,635.82622)">
      <path
         style="stroke:#ffffff;stroke-opacity:1"
         inkscape:connector-curvature="0"
         d="m 233.25781,204.4375 -0.39062,0 q -1.64063,-0.39063 -3.20313,-0.54688 -1.52344,-0.19531 -3.63281,-0.19531 -3.39844,0 -6.5625,1.52344 -3.16406,1.48437 -6.09375,3.86719 l 0,30.97656 -7.34375,0 0,-43.63281 7.34375,0 0,6.44531 q 4.375,-3.51563 7.69531,-4.96094 3.35938,-1.48437 6.83594,-1.48437 1.91406,0 2.77344,0.11718 0.85937,0.0781 2.57812,0.35157 l 0,7.53906 z"
         id="path4140-3" />
      <path
         style="stroke:#ffffff;stroke-opacity:1"
         inkscape:connector-curvature="0"
         d="m 276.77344,219.00781 -32.14844,0 q 0,4.02344 1.21094,7.03125 1.21093,2.96875 3.32031,4.88281 2.03125,1.875 4.80469,2.8125 2.8125,0.9375 6.17187,0.9375 4.45313,0 8.94531,-1.75781 4.53125,-1.79687 6.44532,-3.51562 l 0.39062,0 0,8.00781 q -3.71094,1.5625 -7.57812,2.61719 -3.86719,1.05468 -8.125,1.05468 -10.85938,0 -16.95313,-5.85937 -6.09375,-5.89844 -6.09375,-16.71875 0,-10.70313 5.82031,-16.99219 5.85938,-6.28906 15.39063,-6.28906 8.82812,0 13.59375,5.15625 4.80469,5.15625 4.80469,14.64844 l 0,3.98437 z m -7.14844,-5.625 q -0.0391,-5.78125 -2.92969,-8.94531 -2.85156,-3.16406 -8.71094,-3.16406 -5.89843,0 -9.41406,3.47656 -3.47656,3.47656 -3.94531,8.63281 l 25,0 z"
         id="path4142-1" />
    </g>
  </g>
</svg>
